<?xml version="1.0" encoding="utf-8"?>
<!-- Generator: Adobe Illustrator 16.0.0, SVG Export Plug-In . SVG Version: 6.00 Build 0)  -->
<!DOCTYPE svg PUBLIC "-//W3C//DTD SVG 1.1//EN" "http://www.w3.org/Graphics/SVG/1.1/DTD/svg11.dtd">
<svg version="1.1" id="Layer_1" xmlns="http://www.w3.org/2000/svg" xmlns:xlink="http://www.w3.org/1999/xlink" x="0px" y="0px"
	 width="256px" height="246px" viewBox="0 0 256 246" enable-background="new 0 0 256 246" xml:space="preserve">
<g>
	<path fill-rule="evenodd" clip-rule="evenodd" fill="#59ABBC" d="M70.311,18.45l0.003,42.737l13.529-7.127V19.874l151.152,0.004
		l-0.876,46.29v49.854H97.375c4.299,3.736,12.133,6.292,17.644,11.556c2.061,1.97,13.074,14.796,14.406,14.796h8.547v16.38h-1.425
		c0.063,2.821,0.697,10.684,3.561,10.684h58.401c2.603,0,5.697-1.966,5.697-4.273v-1.424c0-3.325-1.661-4.986-4.985-4.986h-17.806
		v-16.38h49.143c11.915,0,18.518-6.571,18.518-18.518V22.011c0-9.194-6.867-17.093-15.669-17.093H85.98
		C78.958,4.917,70.311,12.08,70.311,18.45L70.311,18.45z"/>
	<path fill-rule="evenodd" clip-rule="evenodd" fill="#908FBB" d="M6.925,177.271v5.697c0,29.14,27.152,59.113,54.84,59.113h9.259
		c29.972,0,58.401-28.726,58.401-57.688v-4.272c0-12.325-6.443-28.097-11.975-35.032c-4.015-5.033-19.388-20.521-26.485-20.521
		c-1.995,0-7.581,8.146-8.546,9.972c18.035,4.201,34.898,23.594,34.898,46.292c0,26.421-21.191,49.855-46.293,49.855h-6.41
		c-23.925,0-45.581-24.154-45.581-49.143c0-11.818,5.08-25.084,10.856-31.163c4.325-4.551,5.14-6.099,10.793-9.861
		c6.083-4.051,8.749-3.852,14.681-6.699l-6.418-9.965C30.302,125.406,6.925,155.317,6.925,177.271L6.925,177.271z"/>
	<path fill-rule="evenodd" clip-rule="evenodd" fill="#5AB074" d="M58.204,102.49l-0.012,2.319l-15.212-1.202l25.489,36.917
		l0.735-0.047l27.458-36.563H80.994c0-21.859,31.945-44.022,57.002-41.537l15.644,1.654c-3.697-5.046-19.648-9.259-29.201-9.259
		h-14.956c-13.044,0-28.106,7.747-34.727,14.416C67.92,76.075,58.204,89.392,58.204,102.49L58.204,102.49z"/>
	<path fill-rule="evenodd" clip-rule="evenodd" fill="#D49C42" d="M51.082,180.121v2.848c0,8.267,8.747,15.669,17.093,15.669
		c8.074,0,17.093-6.978,17.093-14.956v-4.273c0-7.388-7.709-14.956-14.957-14.956H66.75
		C58.737,164.452,51.082,172.107,51.082,180.121L51.082,180.121z"/>
	<path fill-rule="evenodd" clip-rule="evenodd" fill="#D49C42" d="M71.736,217.155h-3.561v6.41h3.561
		c18.012,0,38.459-19.587,38.459-37.035v-5.698h-5.698C104.497,199.047,89.23,217.155,71.736,217.155L71.736,217.155z"/>
	<path fill-rule="evenodd" clip-rule="evenodd" fill="#D49C42" d="M26.155,176.56v4.985h6.41v-2.849
		c0-15.75,15.451-32.424,30.625-32.762c-0.345-1.484-2.38-5.697-3.561-5.697C44.829,140.237,26.155,161.404,26.155,176.56
		L26.155,176.56z"/>
	
		<path fill-rule="evenodd" clip-rule="evenodd" fill="#D49C42" stroke="#D49C42" stroke-width="0.216" stroke-miterlimit="2.6131" d="
		M92.39,182.969c0,12.467-11.404,22.791-24.215,22.791v5.697c15.964,0,30.625-12.881,30.625-27.775v-2.85h-6.41V182.969
		L92.39,182.969z"/>
	
		<path fill-rule="evenodd" clip-rule="evenodd" fill="#D49C42" stroke="#D49C42" stroke-width="0.216" stroke-miterlimit="2.6131" d="
		M37.55,181.545h6.41v-3.561c0-9.976,11.675-20.654,22.079-20.654h2.137v-6.41h-2.137C51.115,150.92,37.55,165.847,37.55,181.545
		L37.55,181.545z"/>
</g>
</svg>
