<?xml version="1.0" encoding="utf-8"?>
<!-- Generator: Adobe Illustrator 16.0.0, SVG Export Plug-In . SVG Version: 6.00 Build 0)  -->
<!DOCTYPE svg PUBLIC "-//W3C//DTD SVG 1.1//EN" "http://www.w3.org/Graphics/SVG/1.1/DTD/svg11.dtd">
<svg version="1.1" id="Layer_1" xmlns="http://www.w3.org/2000/svg" xmlns:xlink="http://www.w3.org/1999/xlink" x="0px" y="0px"
	 width="48.834px" height="27.75px" viewBox="0 0 48.834 27.75" enable-background="new 0 0 48.834 27.75" xml:space="preserve">
<g>
	<path fill-rule="evenodd" clip-rule="evenodd" fill="#C0C0C0" d="M0.858,2.486v15.691c0,0.817,0.274,2.024,0.565,2.747
		c0.336,0.836,0.628,1.425,1.157,2.156c1.729,2.396,4.448,3.725,7.228,3.793h0.46c1.651-0.044,3.306-0.532,4.771-1.509
		c0.327-0.219,0.6-0.415,0.897-0.666c0.241-0.205,0.634-0.562,0.815-0.797c0.207-0.267,0.499-0.541,0.727-0.884
		c0.111-0.167,0.207-0.31,0.313-0.47c0.146-0.218,0.147-0.306,0.321-0.506c0.056,0.209,0.454,0.786,0.591,0.974
		c0.116,0.156,0.215,0.289,0.34,0.441c0.446,0.546,0.656,0.757,1.174,1.218c0.136,0.121,0.29,0.233,0.438,0.345
		c1.565,1.168,3.314,1.854,5.693,1.854c4.155,0,7.918-3.136,8.778-7.189c0.09-0.429,0.195-1.028,0.193-1.509
		c-0.001-0.25,0.058-0.349,0.041-0.542c-0.067-0.823-0.064-1.184-0.251-2.006c-0.381-1.67-1.269-3.229-2.469-4.433l-0.58-0.525
		c-0.214-0.173-0.434-0.344-0.652-0.499c-2.983-2.109-7.17-2.211-10.205-0.175c-0.168,0.113-0.304,0.2-0.463,0.319
		c-0.583,0.44-0.732,0.606-1.283,1.155c-0.266,0.265-0.511,0.563-0.73,0.881l-0.662,0.995c-0.524-0.991-1.308-1.968-2.169-2.663
		l-0.923-0.688c-2.365-1.587-5.241-1.865-8.05-0.936C6.694,9.137,6.517,9.209,6.303,9.313C5.685,9.608,5.406,9.73,4.824,10.134
		c-0.122,0.084-0.152,0.14-0.286,0.175c0-1.856,0-3.711,0-5.568c0-0.849,0.12-1.963-0.107-2.653C4.236,1.5,3.59,0.876,2.837,0.876
		H2.658c-0.285,0.001-0.479,0.018-0.801,0.17c-0.32,0.15-0.655,0.491-0.813,0.797C0.984,1.958,0.858,2.319,0.858,2.486L0.858,2.486z
		 M9.998,12.264c3.026,0,5.479,2.453,5.479,5.479s-2.453,5.479-5.479,5.479c-3.027,0-5.48-2.453-5.48-5.479
		S6.971,12.264,9.998,12.264L9.998,12.264z M26.187,12.223c3.027,0,5.479,2.453,5.479,5.48c0,3.026-2.452,5.479-5.479,5.479
		c-3.026,0-5.48-2.453-5.48-5.479C20.707,14.676,23.16,12.223,26.187,12.223L26.187,12.223z"/>
	<path fill-rule="evenodd" clip-rule="evenodd" fill="#C0C0C0" d="M33.344,10.217c0,1.051,0.359,1.277,1.098,2.261l1.946,2.61
		c0.223,0.299,0.423,0.565,0.65,0.867l1.321,1.762c-0.025,0.03-0.054,0.062-0.085,0.101c-0.035,0.042-0.041,0.052-0.08,0.104
		l-3.74,5.002c-0.454,0.605-1.11,1.297-1.11,1.973c0,0.767,0.222,1.407,0.967,1.794c0.344,0.177,0.591,0.185,0.941,0.185h0.018
		h0.017h0.018h0.019c0.844,0,1.288-0.66,1.656-1.15l2.438-3.268c0.206-0.273,0.398-0.531,0.611-0.813
		c0.133-0.178,0.497-0.706,0.632-0.797c0.178,0.12,3.371,4.464,3.661,4.852c0.697,0.931,0.912,1.177,2.045,1.177
		c0.354,0,0.843-0.266,1.094-0.517c0.453-0.454,0.517-0.896,0.517-1.462c0-0.677-0.643-1.343-1.092-1.945l-3.924-5.233
		c0.459-0.687,2.094-2.791,2.604-3.471l1.945-2.609c0.429-0.566,0.467-0.736,0.467-1.42c0-1.236-1.647-2.259-2.88-1.361
		c-0.433,0.315-0.968,1.124-1.315,1.585c-0.213,0.284-0.428,0.55-0.628,0.844l-2.493,3.304c-0.117-0.086-0.498-0.633-0.625-0.801
		l-3.108-4.162c-0.441-0.588-0.855-1.111-1.788-1.111C34.245,8.514,33.344,9.324,33.344,10.217L33.344,10.217z"/>
</g>
</svg>
