<?xml version="1.0" encoding="utf-8"?>
<!-- Generator: Adobe Illustrator 16.0.0, SVG Export Plug-In . SVG Version: 6.00 Build 0)  -->
<!DOCTYPE svg PUBLIC "-//W3C//DTD SVG 1.1//EN" "http://www.w3.org/Graphics/SVG/1.1/DTD/svg11.dtd">
<svg version="1.1" id="Layer_1" xmlns="http://www.w3.org/2000/svg" xmlns:xlink="http://www.w3.org/1999/xlink" x="0px" y="0px"
	 width="49.765px" height="40.435px" viewBox="0 0 49.765 40.435" enable-background="new 0 0 49.765 40.435" xml:space="preserve">
<g>
	<path fill="#444444" d="M30.085,24.883H6.223v3.111h25.898L43.007,3.11h6.759V0h-8.794L30.085,24.883z M40.972,0"/>
	<path fill="#444444" d="M0.001,6.22l6.222,15.552h21.77L34.213,6.22H0.001z M4.595,9.331h25.024l-3.732,9.332H8.324L4.595,9.331z
		 M8.324,18.663"/>
	<path fill="#444444" d="M26.438,31.104c-2.575,0-4.664,2.089-4.664,4.665s2.089,4.666,4.664,4.666c2.578,0,4.665-2.09,4.665-4.666
		S29.016,31.104,26.438,31.104L26.438,31.104z M26.438,37.323c-0.858,0-1.555-0.698-1.555-1.555c0-0.855,0.696-1.554,1.555-1.554
		s1.555,0.698,1.555,1.554C27.992,36.625,27.296,37.323,26.438,37.323L26.438,37.323z M26.438,37.323"/>
	<path fill="#444444" d="M10.888,31.104c-2.575,0-4.665,2.089-4.665,4.665s2.09,4.666,4.665,4.666c2.576,0,4.666-2.09,4.666-4.666
		S13.464,31.104,10.888,31.104L10.888,31.104z M10.888,37.323c-0.857,0-1.555-0.698-1.555-1.555c0-0.855,0.697-1.554,1.555-1.554
		c0.855,0,1.557,0.698,1.557,1.554C12.444,36.625,11.743,37.323,10.888,37.323L10.888,37.323z M10.888,37.323"/>
</g>
</svg>
