<?xml version="1.0" encoding="utf-8"?>
<!-- Generator: Adobe Illustrator 16.0.0, SVG Export Plug-In . SVG Version: 6.00 Build 0)  -->
<!DOCTYPE svg PUBLIC "-//W3C//DTD SVG 1.1//EN" "http://www.w3.org/Graphics/SVG/1.1/DTD/svg11.dtd">
<svg version="1.1" id="Layer_1" xmlns="http://www.w3.org/2000/svg" xmlns:xlink="http://www.w3.org/1999/xlink" x="0px" y="0px"
	 width="228px" height="227px" viewBox="0 0 228 227" enable-background="new 0 0 228 227" xml:space="preserve">
<circle fill="#F58B73" cx="114.5" cy="113" r="113"/>
<path opacity="0.25" fill="#E86C58" d="M190.605,29.024L31.024,188.605c0,0,77.976,85.395,167.953,0
	C198.978,188.605,269,113.5,190.605,29.024z"/>
<g>
	<path fill="#FFFFFF" d="M94.504,152.104c-5.805,0-10.511,4.705-10.511,10.508c0,5.808,4.706,10.511,10.511,10.511
		c5.802,0,10.51-4.703,10.51-10.511C105.014,156.81,100.307,152.104,94.504,152.104L94.504,152.104z M94.504,152.104"/>
	<g>
		<path fill="#FFFFFF" d="M140.375,152.104c-5.808,0-10.511,4.705-10.511,10.508c0,5.808,4.703,10.511,10.511,10.511
			c5.804,0,10.513-4.703,10.513-10.511C150.888,156.81,146.179,152.104,140.375,152.104L140.375,152.104z M140.375,152.104"/>
		<path fill="#FFFFFF" d="M166.777,94.492l-58.221-0.005c-2.911,0-5.272,2.36-5.272,5.272c0,2.911,2.361,5.27,5.272,5.27
			l51.513-0.002l-3.27,11.06l-52.371,0.011c-2.7,0-4.89,2.189-4.89,4.89c0,2.701,2.189,4.889,4.89,4.889l49.477,0.021l-3.071,10.343
			H91.813l-3.916-31.217L84.158,74.61c-0.304-2.406-2.049-4.382-4.399-4.981l-24.895-6.351c-3.161-0.806-6.377,1.103-7.183,4.263
			c-0.806,3.161,1.103,6.377,4.263,7.183l21,5.357l8.178,61.372c0,0,0.278,7.159,6.78,7.159h65.238c5.465,0,6.522-5.699,6.522-5.699
			l12.93-38.399C172.592,104.507,176.426,94.492,166.777,94.492L166.777,94.492z M166.777,94.492"/>
	</g>
</g>
</svg>
