<?xml version="1.0" encoding="utf-8"?>
<!-- Generator: Adobe Illustrator 16.0.0, SVG Export Plug-In . SVG Version: 6.00 Build 0)  -->
<!DOCTYPE svg PUBLIC "-//W3C//DTD SVG 1.1//EN" "http://www.w3.org/Graphics/SVG/1.1/DTD/svg11.dtd">
<svg version="1.1" id="Layer_1" xmlns="http://www.w3.org/2000/svg" xmlns:xlink="http://www.w3.org/1999/xlink" x="0px" y="0px"
	 width="44.003px" height="47.953px" viewBox="0 0 44.003 47.953" enable-background="new 0 0 44.003 47.953" xml:space="preserve">
<g>
	<path fill="#FFFFFF" d="M16.294,15.943c0.943-0.484,1.714-1.008,2.328-1.501c0.132-0.106,0.258-0.212,0.38-0.318l-5.888-4.649
		l-0.959,3.975L16.294,15.943z M16.294,15.943"/>
	<path fill="#FFFFFF" d="M18.118,5.877l-0.714,2.14l-3.727,0.94l2.972,2.276l3.563-0.519l1.829-3.7l1.829,3.701l3.564,0.518
		l2.971-2.276l-3.729-0.94c0,0-2.535-7.939-3.844-7.939h-3.568c-1.435,0-1.04,1.708-3.18,1.708c-2.14,0-2.527,2.572-2.527,2.572
		h2.853C18.465,4.358,18.118,5.877,18.118,5.877L18.118,5.877z M19.161,1.356c0.256,0,0.461,0.206,0.461,0.46
		s-0.205,0.461-0.461,0.461c-0.254,0-0.46-0.207-0.46-0.461S18.908,1.356,19.161,1.356L19.161,1.356z M19.161,1.356"/>
	<g>
		<path fill="#FFFFFF" d="M25.425,14.442c0.602,0.484,1.354,0.997,2.272,1.473l4.23-2.611l-0.956-3.831l-5.91,4.666
			C25.178,14.24,25.299,14.341,25.425,14.442L25.425,14.442z M25.425,14.442"/>
		<path fill="#FFFFFF" d="M31.614,9.061l0.91,3.882h7.097c2.911,0,4.397-3.882,4.397-3.882H31.614z M31.614,9.061"/>
	</g>
	<path fill="#FFFFFF" d="M28.619,16.352c1.718,0.747,3.915,1.328,6.668,1.432c2.772-0.232,4.819-3.87,4.819-3.87h-7.733
		L28.619,16.352z M28.619,16.352"/>
	<path fill="#FFFFFF" d="M11.495,12.942l0.909-3.882H0c0,0,1.486,3.882,4.398,3.882H11.495z M11.495,12.942"/>
	<path fill="#FFFFFF" d="M15.411,16.359l-3.765-2.446H3.912c0,0,2.051,3.646,4.827,3.871C11.493,17.683,13.692,17.104,15.411,16.359
		L15.411,16.359z M15.411,16.359"/>
	<path fill="#FFFFFF" d="M22.009,11.623c0,0-3.242,7.06-14.148,7.06c0,25.436,7.908,20.617,14.148,28.966
		c6.241-8.35,14.149-3.53,14.149-28.966C25.251,18.682,22.009,11.623,22.009,11.623L22.009,11.623z M31.568,35.381
		c-1.321,2.799-3.06,3.983-5.26,5.482c-1.354,0.923-2.835,1.933-4.299,3.402c-1.464-1.47-2.945-2.479-4.299-3.402
		c-2.201-1.499-3.938-2.684-5.26-5.482c-1.449-3.07-2.223-7.852-2.354-14.577c6.202-0.534,9.902-3.243,11.913-5.416
		c2.011,2.173,5.709,4.882,11.912,5.416C33.791,27.529,33.017,32.311,31.568,35.381L31.568,35.381z M31.568,35.381"/>
	<path fill="#FFFFFF" d="M16.881,27.353c0.333,0,0.644,0.047,0.934,0.14c0.29,0.093,0.58,0.208,0.87,0.344l0.649-1.669
		c-0.773-0.369-1.583-0.553-2.432-0.553c-0.777,0-1.452,0.165-2.026,0.496c-0.574,0.331-1.014,0.805-1.32,1.42
		c-0.306,0.615-0.459,1.329-0.459,2.142c0,1.299,0.316,2.291,0.948,2.979c0.632,0.687,1.54,1.03,2.724,1.03
		c0.827,0,1.567-0.145,2.222-0.435v-1.793c-0.33,0.137-0.657,0.253-0.982,0.349c-0.325,0.097-0.662,0.146-1.009,0.146
		c-1.148,0-1.723-0.755-1.723-2.266c0-0.726,0.142-1.296,0.424-1.709C15.982,27.56,16.376,27.353,16.881,27.353L16.881,27.353z
		 M16.881,27.353"/>
	<rect x="20.52" y="25.727" fill="#FFFFFF" width="2.131" height="7.847"/>
	<path fill="#FFFFFF" d="M26.225,32.103h2.549l0.387,1.471h2.318l-2.592-7.879h-2.829l-2.56,7.879h2.329L26.225,32.103z
		 M27.296,27.89c0.095-0.419,0.158-0.72,0.19-0.902c0.035,0.197,0.109,0.522,0.223,0.978c0.112,0.454,0.208,0.825,0.287,1.11
		l0.338,1.288h-1.669C26.991,29.133,27.201,28.309,27.296,27.89L27.296,27.89z M27.296,27.89"/>
</g>
</svg>
