<?xml version="1.0" encoding="utf-8"?>
<!-- Generator: Adobe Illustrator 16.0.0, SVG Export Plug-In . SVG Version: 6.00 Build 0)  -->
<!DOCTYPE svg PUBLIC "-//W3C//DTD SVG 1.1//EN" "http://www.w3.org/Graphics/SVG/1.1/DTD/svg11.dtd">
<svg version="1.1" id="Layer_1" xmlns="http://www.w3.org/2000/svg" xmlns:xlink="http://www.w3.org/1999/xlink" x="0px" y="0px"
	 width="106px" height="100px" viewBox="0 0 106 100" enable-background="new 0 0 106 100" xml:space="preserve">
<g>
	<path fill="#FFFFFF" d="M52.801,4.398C26.955,4.398,6,25.354,6,51.199C6,77.044,26.955,98,52.801,98
		c25.845,0,46.801-20.956,46.801-46.801C99.602,25.354,78.646,4.398,52.801,4.398L52.801,4.398z M55.726,92.001v-5.702h-5.85v5.702
		c-20.241-1.439-36.437-17.636-37.877-37.877H17.7v-5.851h-5.702c1.44-20.24,17.636-36.437,37.877-37.876v5.702h5.85v-5.702
		c20.241,1.44,36.438,17.636,37.877,37.876H87.9v5.851h5.702C92.163,74.365,75.967,90.562,55.726,92.001L55.726,92.001z
		 M74.332,38.767c0.4,0.697,0.161,1.594-0.536,2l-15.451,8.918c0.134,0.497,0.306,0.977,0.306,1.514c0,3.233-2.619,5.85-5.85,5.85
		c-3.231,0-5.851-2.616-5.851-5.85l-15.876-9.164c-1.399-0.812-1.879-2.599-1.071-3.999c0.806-1.405,2.597-1.885,3.997-1.074
		l15.967,9.221c0.852-0.48,1.783-0.835,2.834-0.835c1.634,0,3.104,0.675,4.167,1.759l15.365-8.877
		C73.019,37.825,73.916,38.065,74.332,38.767L74.332,38.767z M74.332,38.767"/>
</g>
</svg>
