<?xml version="1.0" encoding="utf-8"?>
<!-- Generator: Adobe Illustrator 16.0.0, SVG Export Plug-In . SVG Version: 6.00 Build 0)  -->
<!DOCTYPE svg PUBLIC "-//W3C//DTD SVG 1.1//EN" "http://www.w3.org/Graphics/SVG/1.1/DTD/svg11.dtd">
<svg version="1.1" id="Layer_1" xmlns="http://www.w3.org/2000/svg" xmlns:xlink="http://www.w3.org/1999/xlink" x="0px" y="0px"
	 width="50px" height="50px" viewBox="0 0 50 50" enable-background="new 0 0 50 50" xml:space="preserve">
<rect x="1.5" y="1.5" display="none" fill="#43BD9F" stroke="#FFFFFF" stroke-width="2" stroke-miterlimit="10" width="47" height="47"/>
<g>
	<path fill="#FFFFFF" d="M16.273,11.927c0,1.782-1.445,3.226-3.226,3.226c-1.783,0-3.227-1.444-3.227-3.226S11.265,8.7,13.047,8.7
		C14.828,8.7,16.273,10.145,16.273,11.927L16.273,11.927z"/>
	<path fill="#FFFFFF" d="M9.446,26.46h0.32v6.4c0,0.88,0.721,1.602,1.6,1.602h3.36c0.88,0,1.601-0.722,1.601-1.602v-0.373
		c-0.295-0.561-0.48-1.199-0.48-1.866v-8.374c0-1.626,0.987-3.041,2.399-3.654v-0.639c0-0.88-0.72-1.601-1.6-1.601H9.446
		c-0.88,0-1.6,0.721-1.6,1.601v6.906C7.847,25.741,8.539,26.46,9.446,26.46L9.446,26.46z"/>
	<path fill="#FFFFFF" d="M38.62,11.927c0,1.782-1.445,3.226-3.226,3.226c-1.784,0-3.229-1.444-3.229-3.226S33.61,8.7,35.395,8.7
		C37.175,8.7,38.62,10.145,38.62,11.927L38.62,11.927z"/>
	<path fill="#FFFFFF" d="M30.166,17.927v0.641c1.414,0.612,2.401,2.026,2.401,3.652v8.347c0,0.667-0.16,1.306-0.48,1.866v0.374
		c0,0.88,0.719,1.601,1.6,1.601h3.36c0.879,0,1.6-0.721,1.6-1.601v-6.398h0.32c0.88,0,1.6-0.721,1.6-1.602v-6.88
		c0-0.88-0.72-1.6-1.6-1.6h-7.199C30.887,16.327,30.166,17.047,30.166,17.927L30.166,17.927z"/>
	<path fill="#FFFFFF" d="M18.273,22.248v8.374c0,0.879,0.72,1.599,1.599,1.599h0.614v7.548c0,0.879,0.719,1.6,1.599,1.6h4.294
		c0.879,0,1.6-0.721,1.6-1.6v-7.573h0.613c0.881,0,1.6-0.72,1.6-1.602v-8.345c0-0.88-0.719-1.601-1.6-1.601h-8.72
		C18.966,20.646,18.273,21.368,18.273,22.248L18.273,22.248z"/>
	<path fill="#FFFFFF" d="M27.926,15.607c0,2.047-1.659,3.707-3.706,3.707c-2.047,0-3.707-1.66-3.707-3.707s1.66-3.706,3.707-3.706
		C26.267,11.902,27.926,13.56,27.926,15.607L27.926,15.607z"/>
</g>
<rect x="1.273" y="1.209" fill="#43BD9F" stroke="#FFFFFF" stroke-width="2" stroke-miterlimit="10" width="47.041" height="47.041"/>
<g>
	<path fill="#FFFFFF" d="M14.962,41.146L14.962,41.146c-3.008-0.187-5.667-2.29-6.408-5.355c-0.171-0.707-0.229-1.413-0.183-2.105h0
		c0.197-2.992,2.319-5.645,5.402-6.39c0.694-0.167,1.391-0.228,2.067-0.19l0.008,0.002c3.024,0.172,5.704,2.279,6.45,5.358
		c0.159,0.658,0.219,1.315,0.191,1.958v0.004c-0.138,3.049-2.278,5.774-5.411,6.532C16.369,41.131,15.657,41.189,14.962,41.146
		L14.962,41.146z M10.284,33.789l-0.002,0.023c-0.033,0.501,0.01,1.014,0.134,1.526c0.54,2.234,2.478,3.767,4.668,3.906
		c0.508,0.032,1.028-0.01,1.548-0.137c2.29-0.554,3.852-2.55,3.945-4.778v-0.003c0.02-0.464-0.025-0.938-0.14-1.412
		c-0.543-2.246-2.498-3.783-4.705-3.907h-0.006c-0.493-0.028-0.999,0.016-1.504,0.138C11.978,29.688,10.434,31.613,10.284,33.789
		L10.284,33.789z"/>
	<path fill="#FFFFFF" d="M22.186,28.826c3.236-2.991,5.655-6.33,9.411-8.737c1.881-1.206,8.365-7.678,8.294-10.626
		c-0.007-0.263-0.467-0.918-0.643-0.914c-2.667,0.064-8.107,6.212-9.555,8.531c-2.147,3.439-5.928,7.016-8.635,9.84
		c-2.612,2.728-4.499,4.62-6.36,7.978C18.56,33.101,19.268,31.522,22.186,28.826L22.186,28.826z M29.601,19.641
		c1.988-0.298,8.724-7.29,9.066-9.527C36.503,10.239,29.963,17.276,29.601,19.641L29.601,19.641z"/>
</g>
</svg>
