<?xml version="1.0" encoding="utf-8"?>
<!-- Generator: Adobe Illustrator 16.0.0, SVG Export Plug-In . SVG Version: 6.00 Build 0)  -->
<!DOCTYPE svg PUBLIC "-//W3C//DTD SVG 1.1//EN" "http://www.w3.org/Graphics/SVG/1.1/DTD/svg11.dtd">
<svg version="1.1" id="Layer_1" xmlns="http://www.w3.org/2000/svg" xmlns:xlink="http://www.w3.org/1999/xlink" x="0px" y="0px"
	 width="228px" height="227px" viewBox="0 0 228 227" enable-background="new 0 0 228 227" xml:space="preserve">
<circle fill="#48BD9F" cx="114.5" cy="113" r="113"/>
<path opacity="0.25" fill="#30A081" d="M190.605,29.024L31.024,188.605c0,0,77.976,85.395,167.953,0
	C198.978,188.605,269,113.5,190.605,29.024z"/>
<g>
	<path fill="#FFFFFF" d="M135.29,113.536c0,6.967-5.633,12.601-12.578,12.601h-16.779c-6.941,0-12.602-5.634-12.602-12.601V71.58
		c0-6.945,5.66-12.576,12.602-12.576h16.779c6.945,0,12.578,5.631,12.578,12.576V113.536z M135.29,113.536"/>
	<path fill="#FFFFFF" d="M123.593,138.799c-9.263,9.255-9.138,9.239-18.377,0l-27.554-27.554c-5.063-5.084-3.913-6.086,2.007-6.086
		h69.491c5.341,0,7.066,1.002,1.985,6.086L123.593,138.799z M123.593,138.799"/>
	<path fill="#FFFFFF" d="M160.468,138.716v16.774c0,2.319-1.885,4.204-4.199,4.204H72.354c-2.312,0-4.174-1.885-4.174-4.204v-16.774
		h-8.402v16.774c0,6.97,5.634,12.604,12.576,12.604h83.915c6.965,0,12.599-5.634,12.599-12.604v-16.774H160.468z M160.468,138.716"
		/>
</g>
</svg>
