<?xml version="1.0" encoding="utf-8"?>
<!-- Generator: Adobe Illustrator 16.0.0, SVG Export Plug-In . SVG Version: 6.00 Build 0)  -->
<!DOCTYPE svg PUBLIC "-//W3C//DTD SVG 1.1//EN" "http://www.w3.org/Graphics/SVG/1.1/DTD/svg11.dtd">
<svg version="1.1" id="Layer_1" xmlns="http://www.w3.org/2000/svg" xmlns:xlink="http://www.w3.org/1999/xlink" x="0px" y="0px"
	 width="43.25px" height="35.834px" viewBox="0 0 43.25 35.834" enable-background="new 0 0 43.25 35.834" xml:space="preserve">
<g>
	<path fill-rule="evenodd" clip-rule="evenodd" fill="#575757" d="M42.805,30.141V19.72c-2.351-0.112-3.834-0.443-5.491-1.485
		c-1.423-0.895-2.764-1.813-4.182-2.705c-2.843-1.788-5.633-3.648-8.399-5.435c-0.71,1.187-3.853,5.173-4.919,6.812
		c0.245,0.422,0.609,0.834,0.897,1.212c0.281,0.37,0.587,0.815,0.864,1.218c0.473,0.69,1.46,1.728,0.955,2.915
		c-0.329,0.774-1.363,1.428-2.345,1.744c-1.938,0.624-5.313,0.692-7.444,0.789c-1.245,0.057-2.537,0.179-3.232,0.876
		c-1.862,1.869-0.597,4.468,1.28,5.034c1.13,0.342,6.411,0.035,7.978-0.002c2.656-0.062,5.31-0.127,7.963-0.188
		C32.087,30.384,37.449,30.241,42.805,30.141L42.805,30.141z"/>
	<path fill-rule="evenodd" clip-rule="evenodd" fill="#575757" d="M2.955,35.169c0.4-0.135,3.65-2.044,4.407-2.47
		c0.42-0.237,0.521-0.235,0.782-0.582l1.164-1.647c-1.241-1.282-1.496-3.095-0.553-4.416c1.025-1.438,2.223-1.533,4.418-1.631
		c0.807-0.036,0.641-0.057,1.593-1.398l3.843-5.271c0.884-1.152,1.656-2.332,2.541-3.487c0.901-1.176,1.697-2.361,2.571-3.527
		c0.424-0.565,0.848-1.148,1.271-1.743l3.175-4.361c0.217-0.307,0.504-0.596,0.651-0.96C28.15,3.304,25.556,1.281,25.01,1
		l-1.45,1.973c-0.523,0.684-0.979,1.325-1.481,2.035c-0.977,1.38-1.988,2.686-2.965,4.066L14.67,15.18
		c-0.519,0.715-0.957,1.349-1.482,2.034c-2.433,3.171-4.954,6.889-7.413,10.167c-2,2.667-1.519,1.773-2.19,4.838
		C3.378,33.157,3.087,34.23,2.955,35.169L2.955,35.169z"/>
	<path fill-rule="evenodd" clip-rule="evenodd" fill="#575757" d="M19.95,7.12c-0.837-0.69-2.492-1.466-3.698-1.42
		c-1.622,0.063-2.443,1.168-3.114,2.063c-0.727,0.968-1.429,2.015-2.161,3.006l-3.204,4.546c-0.375,0.523-0.702,1.022-1.064,1.519
		c-1.391,1.911-2.851,4.163-4.242,6.092c-0.38,0.526-0.714,1.017-1.062,1.521c-0.328,0.477-0.838,0.999-0.536,1.814
		c0.388,1.046,2.088,1.771,3.613,1.547c0.703-0.104,0.636-0.354,1.322-1.259c0.366-0.481,0.744-1.005,1.089-1.494
		c1.762-2.495,3.69-4.987,5.445-7.471l6.536-8.963C19.193,8.191,19.684,7.571,19.95,7.12L19.95,7.12z"/>
</g>
</svg>
