<?xml version="1.0" encoding="utf-8"?>
<!-- Generator: Adobe Illustrator 16.0.0, SVG Export Plug-In . SVG Version: 6.00 Build 0)  -->
<!DOCTYPE svg PUBLIC "-//W3C//DTD SVG 1.1//EN" "http://www.w3.org/Graphics/SVG/1.1/DTD/svg11.dtd">
<svg version="1.1" id="Layer_1" xmlns="http://www.w3.org/2000/svg" xmlns:xlink="http://www.w3.org/1999/xlink" x="0px" y="0px"
	 width="277.052px" height="277.793px" viewBox="0 0 277.052 277.793" enable-background="new 0 0 277.052 277.793"
	 xml:space="preserve">
<g>
	<path fill-rule="evenodd" clip-rule="evenodd" fill="#E3603A" d="M133.068,4.949c-10.326,2.97-11.751,11.283-26.232,6.739
		c-11.812-3.707-18.381,1.302-23.235,8.374c-8.878,12.932-12.552,4.976-24.768,10.173C47.02,35.26,50.538,43.211,44.49,51.86
		c-5.285,7.559-14.831,3.977-20.487,14.474c-5.877,10.906,2.565,17.613-7.701,27.232c-4.907,4.598-14.011,10.742-8.86,24.376
		c1.798,4.758,3.828,7.306,2.184,13.652c-1.666,6.431-10.998,13.953-4.587,26.615c2.612,5.157,5.061,4.569,7.514,9.997
		c4.748,10.508-4.491,16.895,2.665,28.344c5.528,8.846,12.575,5.194,17.276,17.743c2.049,5.469,0.352,7.748,3.622,13.819
		c6.215,11.539,14.757,6.925,23.135,12.852c5.98,4.229,5.863,14.896,16.213,18.818c6.871,2.604,9.446,0.302,15.57,0.34
		c12.646,0.079,12.475,9.917,22.005,12.556c14.585,4.038,16.966-7.86,30.164-3.921c9.007,2.688,15.756,9.752,26.085,0.166
		c3.305-3.065,4.308-5.724,9.73-7.695c8.48-3.082,18.073,3.736,27.894-5.207c4.576-4.169,3.509-10.125,10.638-15.512
		c5.426-4.102,11.897-2.392,19.473-7.799c8.007-5.715,3.55-17.138,9.955-25.038c3.46-4.269,14.888-5.88,16.614-18.339
		c1.889-13.635-7.412-12.346,4.278-26.764c7.855-9.689,6.594-15.981,0.349-26.645c-6.637-11.332,3.331-16.887,1.479-28.617
		c-1.711-10.826-11.373-11.34-14.476-20.514c-2.315-6.843,2.746-19.187-8.609-26.449c-4.145-2.651-8.379-2.944-11.729-5.698
		c-11.624-9.556-2.345-24.887-27.272-25.997c-14.384-0.641-12.402-8.325-20.435-14.641c-10.696-8.412-17.681,0.351-27.997-1.133
		C148.891,11.397,147.413,0.824,133.068,4.949L133.068,4.949z"/>
	<path fill-rule="evenodd" clip-rule="evenodd" fill="#FFFFFF" d="M138.076,19.124c66.148,0,119.773,53.624,119.773,119.772
		s-53.625,119.772-119.773,119.772S18.304,205.045,18.304,138.896S71.928,19.124,138.076,19.124L138.076,19.124z M138.076,23.851
		c63.539,0,115.047,51.508,115.047,115.046c0,63.539-51.508,115.047-115.047,115.047c-63.538,0-115.046-51.508-115.046-115.047
		C23.03,75.358,74.538,23.851,138.076,23.851L138.076,23.851z"/>
	<polygon fill-rule="evenodd" clip-rule="evenodd" fill="#FFFFFF" points="138.364,200 142.745,213.571 157.006,213.543 
		145.453,221.904 149.885,235.458 138.364,227.054 126.843,235.458 131.275,221.904 119.722,213.543 133.983,213.571 138.364,200 	
		"/>
	<polygon fill-rule="evenodd" clip-rule="evenodd" fill="#FFFFFF" points="172.916,195.454 176.141,205.445 186.64,205.426 
		178.135,211.58 181.398,221.56 172.916,215.372 164.435,221.56 167.697,211.58 159.191,205.426 169.69,205.445 172.916,195.454 	
		"/>
	<polygon fill-rule="evenodd" clip-rule="evenodd" fill="#FFFFFF" points="202.046,191.093 204.307,198.095 211.665,198.081 
		205.703,202.396 207.99,209.39 202.046,205.052 196.101,209.39 198.389,202.396 192.427,198.081 199.785,198.095 202.046,191.093 	
		"/>
	<polygon fill-rule="evenodd" clip-rule="evenodd" fill="#FFFFFF" points="103.237,195.454 100.012,205.445 89.513,205.426 
		98.019,211.58 94.755,221.56 103.237,215.372 111.719,221.56 108.456,211.58 116.961,205.426 106.462,205.445 103.237,195.454 	"/>
	<polygon fill-rule="evenodd" clip-rule="evenodd" fill="#FFFFFF" points="74.107,191.093 71.847,198.095 64.489,198.081 
		70.45,202.396 68.163,209.39 74.107,205.052 80.052,209.39 77.765,202.396 83.726,198.081 76.368,198.095 74.107,191.093 	"/>
	
		<text transform="matrix(-0.5796 0.8149 -0.8149 -0.5796 225.4219 196.3574)" fill="#FFFFFF" font-family="'ArialMT'" font-size="24.0089">.</text>
	
		<text transform="matrix(-0.6179 0.7863 -0.7863 -0.6179 221.541 201.7793)" fill="#FFFFFF" font-family="'ArialMT'" font-size="24.0089">.</text>
	
		<text transform="matrix(-0.69 0.7238 -0.7238 -0.69 217.4551 207.0547)" fill="#FFFFFF" font-family="'ArialMT'" font-size="24.0089">.</text>
	
		<text transform="matrix(-0.7238 0.69 -0.69 -0.7238 212.8906 211.9404)" fill="#FFFFFF" font-family="'ArialMT'" font-size="24.0089">.</text>
	
		<text transform="matrix(-0.7559 0.6547 -0.6547 -0.7559 208.0596 216.5225)" fill="#FFFFFF" font-family="'ArialMT'" font-size="24.0089">.</text>
	
		<text transform="matrix(-0.8149 0.5796 -0.5796 -0.8149 203.0254 220.916)" fill="#FFFFFF" font-family="'ArialMT'" font-size="24.0089">.</text>
	
		<text transform="matrix(-0.8418 0.5398 -0.5398 -0.8418 197.6279 224.8369)" fill="#FFFFFF" font-family="'ArialMT'" font-size="24.0089">.</text>
	
		<text transform="matrix(-0.8669 0.4985 -0.4985 -0.8669 192.0029 228.418)" fill="#FFFFFF" font-family="'ArialMT'" font-size="24.0089">.</text>
	
		<text transform="matrix(-0.9112 0.412 -0.412 -0.9112 186.2461 231.8086)" fill="#FFFFFF" font-family="'ArialMT'" font-size="24.0089">.</text>
	
		<text transform="matrix(-0.9303 0.3668 -0.3668 -0.9303 180.1943 234.6279)" fill="#FFFFFF" font-family="'ArialMT'" font-size="24.0089">.</text>
	
		<text transform="matrix(-0.9473 0.3204 -0.3204 -0.9473 173.9873 237.0645)" fill="#FFFFFF" font-family="'ArialMT'" font-size="24.0089">.</text>
	
		<text transform="matrix(-0.962 0.2731 -0.2731 -0.962 167.6445 239.1279)" fill="#FFFFFF" font-family="'ArialMT'" font-size="24.0089">.</text>
	
		<text transform="matrix(-0.9844 0.1759 -0.1759 -0.9844 161.2051 240.9121)" fill="#FFFFFF" font-family="'ArialMT'" font-size="24.0089">.</text>
	
		<text transform="matrix(-0.992 0.126 -0.126 -0.992 154.6611 242.1279)" fill="#FFFFFF" font-family="'ArialMT'" font-size="24.0089">.</text>
	
		<text transform="matrix(-0.9971 0.0758 -0.0758 -0.9971 148.0146 242.9287)" fill="#FFFFFF" font-family="'ArialMT'" font-size="24.0089">.</text>
	
		<text transform="matrix(-0.9997 -0.0253 0.0253 -0.9997 141.3789 243.4902)" fill="#FFFFFF" font-family="'ArialMT'" font-size="24.0089">.</text>
	
		<text transform="matrix(-0.9971 -0.0758 0.0758 -0.9971 134.7017 243.4307)" fill="#FFFFFF" font-family="'ArialMT'" font-size="24.0089">.</text>
	
		<text transform="matrix(-0.992 -0.126 0.126 -0.992 128.0464 242.9736)" fill="#FFFFFF" font-family="'ArialMT'" font-size="24.0089">.</text>
	
		<text transform="matrix(-0.9844 -0.1759 0.1759 -0.9844 121.4468 242.0791)" fill="#FFFFFF" font-family="'ArialMT'" font-size="24.0089">.</text>
	
		<text transform="matrix(-0.962 -0.2731 0.2731 -0.962 114.8535 240.959)" fill="#FFFFFF" font-family="'ArialMT'" font-size="24.0089">.</text>
	
		<text transform="matrix(-0.9473 -0.3204 0.3204 -0.9473 108.4165 239.2031)" fill="#FFFFFF" font-family="'ArialMT'" font-size="24.0089">.</text>
	
		<text transform="matrix(-0.9303 -0.3668 0.3668 -0.9303 102.0864 237.0576)" fill="#FFFFFF" font-family="'ArialMT'" font-size="24.0089">.</text>
	
		<text transform="matrix(-0.9112 -0.412 0.412 -0.9112 95.9316 234.5479)" fill="#FFFFFF" font-family="'ArialMT'" font-size="24.0089">.</text>
	
		<text transform="matrix(-0.8669 -0.4985 0.4985 -0.8669 89.8667 231.7412)" fill="#FFFFFF" font-family="'ArialMT'" font-size="24.0089">.</text>
	
		<text transform="matrix(-0.8418 -0.5398 0.5398 -0.8418 84.0801 228.4287)" fill="#FFFFFF" font-family="'ArialMT'" font-size="24.0089">.</text>
	
		<text transform="matrix(-0.8149 -0.5796 0.5796 -0.8149 78.4966 224.7607)" fill="#FFFFFF" font-family="'ArialMT'" font-size="24.0089">.</text>
	
		<text transform="matrix(-0.7559 -0.6547 0.6547 -0.7559 73.0845 220.8682)" fill="#FFFFFF" font-family="'ArialMT'" font-size="24.0089">.</text>
	
		<text transform="matrix(-0.7238 -0.69 0.69 -0.7238 68.0327 216.5215)" fill="#FFFFFF" font-family="'ArialMT'" font-size="24.0089">.</text>
	
		<text transform="matrix(-0.69 -0.7238 0.7238 -0.69 63.2505 211.8672)" fill="#FFFFFF" font-family="'ArialMT'" font-size="24.0089">.</text>
	
		<text transform="matrix(-0.6179 -0.7863 0.7863 -0.6179 58.668 206.999)" fill="#FFFFFF" font-family="'ArialMT'" font-size="24.0089">.</text>
	
		<text transform="matrix(-0.5796 -0.8149 0.8149 -0.5796 54.5337 201.7686)" fill="#FFFFFF" font-family="'ArialMT'" font-size="24.0089">.</text>
	
		<text transform="matrix(-0.5398 -0.8418 0.8418 -0.5398 50.7168 196.3135)" fill="#FFFFFF" font-family="'ArialMT'" font-size="24.0089">.</text>
	
		<text transform="matrix(-0.4559 -0.8901 0.8901 -0.4559 47.144 190.6768)" fill="#FFFFFF" font-family="'ArialMT'" font-size="24.0089">.</text>
	
		<text transform="matrix(-0.412 -0.9112 0.9112 -0.412 44.0786 184.7559)" fill="#FFFFFF" font-family="'ArialMT'" font-size="24.0089">.</text>
	
		<text transform="matrix(-0.3668 -0.9303 0.9303 -0.3668 41.3677 178.6494)" fill="#FFFFFF" font-family="'ArialMT'" font-size="24.0089">.</text>
	
		<text transform="matrix(-0.2731 -0.962 0.962 -0.2731 38.9199 172.4385)" fill="#FFFFFF" font-family="'ArialMT'" font-size="24.0089">.</text>
	
		<text transform="matrix(-0.225 -0.9744 0.9744 -0.225 37.0557 166.042)" fill="#FFFFFF" font-family="'ArialMT'" font-size="24.0089">.</text>
	
		<text transform="matrix(-0.1759 -0.9844 0.9844 -0.1759 35.5649 159.5273)" fill="#FFFFFF" font-family="'ArialMT'" font-size="24.0089">.</text>
	
		<text transform="matrix(-0.126 -0.992 0.992 -0.126 34.4883 152.9482)" fill="#FFFFFF" font-family="'ArialMT'" font-size="24.0089">.</text>
	
		<text transform="matrix(-0.0253 -0.9997 0.9997 -0.0253 33.7056 146.3271)" fill="#FFFFFF" font-family="'ArialMT'" font-size="24.0089">.</text>
	
		<text transform="matrix(0.0253 -0.9997 0.9997 0.0253 33.4971 139.6533)" fill="#FFFFFF" font-family="'ArialMT'" font-size="24.0089">.</text>
	
		<text transform="matrix(0.0758 -0.9971 0.9971 0.0758 33.6802 132.9893)" fill="#FFFFFF" font-family="'ArialMT'" font-size="24.0089">.</text>
	<text transform="matrix(0.126 -0.992 0.992 0.126 34.2871 126.333)" fill="#FFFFFF" font-family="'ArialMT'" font-size="24.0089">.</text>
	
		<text transform="matrix(0.225 -0.9744 0.9744 0.225 35.1953 119.7261)" fill="#FFFFFF" font-family="'ArialMT'" font-size="24.0089">.</text>
	
		<text transform="matrix(0.2731 -0.962 0.962 0.2731 36.666 113.2246)" fill="#FFFFFF" font-family="'ArialMT'" font-size="24.0089">.</text>
	
		<text transform="matrix(0.3204 -0.9473 0.9473 0.3204 38.5381 106.8223)" fill="#FFFFFF" font-family="'ArialMT'" font-size="24.0089">.</text>
	
		<text transform="matrix(0.412 -0.9112 0.9112 0.412 40.6699 100.5005)" fill="#FFFFFF" font-family="'ArialMT'" font-size="24.0089">.</text>
	
		<text transform="matrix(0.4559 -0.8901 0.8901 0.4559 43.3892 94.4023)" fill="#FFFFFF" font-family="'ArialMT'" font-size="24.0089">.</text>
	
		<text transform="matrix(0.4985 -0.8669 0.8669 0.4985 46.4595 88.4873)" fill="#FFFFFF" font-family="'ArialMT'" font-size="24.0089">.</text>
	
		<text transform="matrix(0.5796 -0.8149 0.8149 0.5796 49.7603 82.6782)" fill="#FFFFFF" font-family="'ArialMT'" font-size="24.0089">.</text>
	
		<text transform="matrix(0.6179 -0.7863 0.7863 0.6179 53.5786 77.2095)" fill="#FFFFFF" font-family="'ArialMT'" font-size="24.0089">.</text>
	
		<text transform="matrix(0.6547 -0.7559 0.7559 0.6547 57.7271 71.9771)" fill="#FFFFFF" font-family="'ArialMT'" font-size="24.0089">.</text>
	<text transform="matrix(0.7238 -0.69 0.69 0.7238 62.0806 66.9175)" fill="#FFFFFF" font-family="'ArialMT'" font-size="24.0089">.</text>
	
		<text transform="matrix(0.7559 -0.6547 0.6547 0.7559 66.8604 62.2686)" fill="#FFFFFF" font-family="'ArialMT'" font-size="24.0089">.</text>
	
		<text transform="matrix(0.7863 -0.6179 0.6179 0.7863 71.9194 57.9141)" fill="#FFFFFF" font-family="'ArialMT'" font-size="24.0089">.</text>
	
		<text transform="matrix(0.8418 -0.5398 0.5398 0.8418 77.1455 53.7544)" fill="#FFFFFF" font-family="'ArialMT'" font-size="24.0089">.</text>
	
		<text transform="matrix(0.8669 -0.4985 0.4985 0.8669 82.7202 50.0986)" fill="#FFFFFF" font-family="'ArialMT'" font-size="24.0089">.</text>
	
		<text transform="matrix(0.8901 -0.4559 0.4559 0.8901 88.5205 46.7964)" fill="#FFFFFF" font-family="'ArialMT'" font-size="24.0089">.</text>
	
		<text transform="matrix(0.9303 -0.3668 0.3668 0.9303 94.4517 43.708)" fill="#FFFFFF" font-family="'ArialMT'" font-size="24.0089">.</text>
	
		<text transform="matrix(0.9473 -0.3204 0.3204 0.9473 100.6187 41.1846)" fill="#FFFFFF" font-family="'ArialMT'" font-size="24.0089">.</text>
	
		<text transform="matrix(0.962 -0.2731 0.2731 0.962 106.939 39.0371)" fill="#FFFFFF" font-family="'ArialMT'" font-size="24.0089">.</text>
	
		<text transform="matrix(0.9744 -0.225 0.225 0.9744 113.3716 37.2896)" fill="#FFFFFF" font-family="'ArialMT'" font-size="24.0089">.</text>
	<text transform="matrix(0.992 -0.126 0.126 0.992 119.8833 35.8145)" fill="#FFFFFF" font-family="'ArialMT'" font-size="24.0089">.</text>
	
		<text transform="matrix(0.9971 -0.0758 0.0758 0.9971 126.5015 34.9434)" fill="#FFFFFF" font-family="'ArialMT'" font-size="24.0089">.</text>
	
		<text transform="matrix(0.9997 -0.0253 0.0253 0.9997 133.1489 34.4678)" fill="#FFFFFF" font-family="'ArialMT'" font-size="24.0089">.</text>
	
		<text transform="matrix(0.9997 0.0253 -0.0253 0.9997 139.8159 34.3789)" fill="#FFFFFF" font-family="'ArialMT'" font-size="24.0089">.</text>
	<text transform="matrix(0.992 0.126 -0.126 0.992 146.4902 34.5869)" fill="#FFFFFF" font-family="'ArialMT'" font-size="24.0089">.</text>
	
		<text transform="matrix(0.9844 0.1759 -0.1759 0.9844 153.1123 35.3799)" fill="#FFFFFF" font-family="'ArialMT'" font-size="24.0089">.</text>
	<text transform="matrix(0.9744 0.225 -0.225 0.9744 159.665 36.582)" fill="#FFFFFF" font-family="'ArialMT'" font-size="24.0089">.</text>
	
		<text transform="matrix(0.9473 0.3204 -0.3204 0.9473 166.1953 38.0254)" fill="#FFFFFF" font-family="'ArialMT'" font-size="24.0089">.</text>
	
		<text transform="matrix(0.9303 0.3668 -0.3668 0.9303 172.5361 40.0947)" fill="#FFFFFF" font-family="'ArialMT'" font-size="24.0089">.</text>
	
		<text transform="matrix(0.9112 0.412 -0.412 0.9112 178.7393 42.5479)" fill="#FFFFFF" font-family="'ArialMT'" font-size="24.0089">.</text>
	
		<text transform="matrix(0.8901 0.4559 -0.4559 0.8901 184.791 45.3652)" fill="#FFFFFF" font-family="'ArialMT'" font-size="24.0089">.</text>
	
		<text transform="matrix(0.8418 0.5398 -0.5398 0.8418 190.7109 48.4727)" fill="#FFFFFF" font-family="'ArialMT'" font-size="24.0089">.</text>
	
		<text transform="matrix(0.8149 0.5796 -0.5796 0.8149 196.3223 52.0571)" fill="#FFFFFF" font-family="'ArialMT'" font-size="24.0089">.</text>
	
		<text transform="matrix(0.7863 0.6179 -0.6179 0.7863 201.7178 55.9849)" fill="#FFFFFF" font-family="'ArialMT'" font-size="24.0089">.</text>
	<text transform="matrix(0.7238 0.69 -0.69 0.7238 206.9385 60.1445)" fill="#FFFFFF" font-family="'ArialMT'" font-size="24.0089">.</text>
	<text transform="matrix(0.69 0.7238 -0.7238 0.69 211.7656 64.7295)" fill="#FFFFFF" font-family="'ArialMT'" font-size="24.0089">.</text>
	
		<text transform="matrix(0.6547 0.7559 -0.7559 0.6547 216.3203 69.6133)" fill="#FFFFFF" font-family="'ArialMT'" font-size="24.0089">.</text>
	
		<text transform="matrix(0.5796 0.8149 -0.8149 0.5796 220.6543 74.6929)" fill="#FFFFFF" font-family="'ArialMT'" font-size="24.0089">.</text>
	
		<text transform="matrix(0.5397 0.8419 -0.8419 0.5397 224.5264 80.1045)" fill="#FFFFFF" font-family="'ArialMT'" font-size="24.0089">.</text>
	
		<text transform="matrix(0.4985 0.8669 -0.8669 0.4985 228.082 85.7568)" fill="#FFFFFF" font-family="'ArialMT'" font-size="24.0089">.</text>
	
		<text transform="matrix(0.412 0.9112 -0.9112 0.412 231.3809 91.5674)" fill="#FFFFFF" font-family="'ArialMT'" font-size="24.0089">.</text>
	
		<text transform="matrix(0.3668 0.9303 -0.9303 0.3668 234.1533 97.6255)" fill="#FFFFFF" font-family="'ArialMT'" font-size="24.0089">.</text>
	
		<text transform="matrix(0.3204 0.9473 -0.9473 0.3204 236.5566 103.8516)" fill="#FFFFFF" font-family="'ArialMT'" font-size="24.0089">.</text>
	
		<text transform="matrix(0.225 0.9744 -0.9744 0.225 238.7129 110.1699)" fill="#FFFFFF" font-family="'ArialMT'" font-size="24.0089">.</text>
	
		<text transform="matrix(0.1759 0.9844 -0.9844 0.1759 240.2656 116.6587)" fill="#FFFFFF" font-family="'ArialMT'" font-size="24.0089">.</text>
	<text transform="matrix(0.126 0.992 -0.992 0.126 241.416 123.2178)" fill="#FFFFFF" font-family="'ArialMT'" font-size="24.0089">.</text>
	
		<text transform="matrix(0.0758 0.9971 -0.9971 0.0758 242.1797 129.835)" fill="#FFFFFF" font-family="'ArialMT'" font-size="24.0089">.</text>
	
		<text transform="matrix(-0.0253 0.9997 -0.9997 -0.0253 242.6553 136.5103)" fill="#FFFFFF" font-family="'ArialMT'" font-size="24.0089">.</text>
	
		<text transform="matrix(-0.0758 0.9971 -0.9971 -0.0758 242.5352 143.1924)" fill="#FFFFFF" font-family="'ArialMT'" font-size="24.0089">.</text>
	
		<text transform="matrix(-0.126 0.992 -0.992 -0.126 242.0332 149.834)" fill="#FFFFFF" font-family="'ArialMT'" font-size="24.0089">.</text>
	
		<text transform="matrix(-0.1759 0.9844 -0.9844 -0.1759 241.0869 156.4336)" fill="#FFFFFF" font-family="'ArialMT'" font-size="24.0089">.</text>
	
		<text transform="matrix(-0.2731 0.962 -0.962 -0.2731 239.8604 162.9961)" fill="#FFFFFF" font-family="'ArialMT'" font-size="24.0089">.</text>
	
		<text transform="matrix(-0.3204 0.9473 -0.9473 -0.3204 238.0723 169.416)" fill="#FFFFFF" font-family="'ArialMT'" font-size="24.0089">.</text>
	
		<text transform="matrix(-0.3668 0.9303 -0.9303 -0.3668 235.8779 175.7275)" fill="#FFFFFF" font-family="'ArialMT'" font-size="24.0089">.</text>
	
		<text transform="matrix(-0.4559 0.8901 -0.8901 -0.4559 233.4248 181.9336)" fill="#FFFFFF" font-family="'ArialMT'" font-size="24.0089">.</text>
	
		<text transform="matrix(-0.4985 0.8669 -0.8669 -0.4985 230.4316 187.8926)" fill="#FFFFFF" font-family="'ArialMT'" font-size="24.0089">.</text>
	
		<text transform="matrix(1 0 0 1 85.9033 123.269)" fill="#FFFFFF" font-family="'Geometric706BT-BlackCondensedB'" font-size="63.4146" letter-spacing="-6">10</text>
	
		<text transform="matrix(1 0 0 1 142.9766 123.269)" fill="#FFFFFF" font-family="'Geometric706BT-BlackCondensedB'" font-size="63.4146">0</text>
	
		<text transform="matrix(1 0 0 1 173.8203 98.9736)" fill="#FFFFFF" font-family="'Geometric706BT-BlackCondensedB'" font-size="29.9768">%</text>
	
		<text transform="matrix(1 0 0 1 45.6211 162.8301)" fill="#FFFFFF" font-family="'Geometric706BT-BlackCondensedB'" font-size="33.9914">SA</text>
	
		<text transform="matrix(1 0 0 1 79.5977 162.8301)" fill="#FFFFFF" font-family="'Geometric706BT-BlackCondensedB'" font-size="33.9914">TIS</text>
	
		<text transform="matrix(1 0 0 1 120.0698 162.8301)" fill="#FFFFFF" font-family="'Geometric706BT-BlackCondensedB'" font-size="33.9914">FAC</text>
	
		<text transform="matrix(1 0 0 1 170.6328 162.8301)" fill="#FFFFFF" font-family="'Geometric706BT-BlackCondensedB'" font-size="33.9914">TIO</text>
	
		<text transform="matrix(1 0 0 1 213.6846 162.8301)" fill="#FFFFFF" font-family="'Geometric706BT-BlackCondensedB'" font-size="33.9914">N</text>
	<polygon fill-rule="evenodd" clip-rule="evenodd" fill="#FFFFFF" points="49.666,170.71 226.487,170.71 226.487,172.531 
		49.666,172.531 49.666,170.71 	"/>
	<polygon fill-rule="evenodd" clip-rule="evenodd" fill="#FFFFFF" points="196.391,102.901 224.511,102.901 224.511,104.722 
		196.391,104.722 196.391,102.901 	"/>
	<polygon fill-rule="evenodd" clip-rule="evenodd" fill="#FFFFFF" points="63.216,102.901 91.337,102.901 91.337,104.722 
		63.216,104.722 63.216,102.901 	"/>
</g>
</svg>
