<?xml version="1.0" encoding="utf-8"?>
<!-- Generator: Adobe Illustrator 16.0.0, SVG Export Plug-In . SVG Version: 6.00 Build 0)  -->
<!DOCTYPE svg PUBLIC "-//W3C//DTD SVG 1.1//EN" "http://www.w3.org/Graphics/SVG/1.1/DTD/svg11.dtd">
<svg version="1.1" id="Layer_1" xmlns="http://www.w3.org/2000/svg" xmlns:xlink="http://www.w3.org/1999/xlink" x="0px" y="0px"
	 width="50px" height="41.29px" viewBox="0 0 50 41.29" enable-background="new 0 0 50 41.29" xml:space="preserve">
<g>
	<g>
		<path fill="#FFFFFF" d="M44.429,13.955c-1.488,0-2.692,1.197-2.692,2.687c0,1.497,1.204,2.701,2.692,2.701
			c1.49,0,2.694-1.204,2.694-2.701C47.123,15.152,45.919,13.955,44.429,13.955L44.429,13.955z M5.705,13.955
			c-1.49,0-2.692,1.197-2.692,2.687c0,1.497,1.202,2.701,2.692,2.701c1.488,0,2.691-1.204,2.691-2.701
			C8.396,15.152,7.193,13.955,5.705,13.955L5.705,13.955z M36.422,9.054c-2.221,0-4.011,1.8-4.011,4.013
			c0,2.199,1.79,4.004,4.011,4.004c2.206,0,4.012-1.805,4.012-4.004C40.434,10.854,38.628,9.054,36.422,9.054L36.422,9.054z
			 M48.855,33.432h-4.57v-8.41c0-1.446-0.414-2.793-1.103-3.953c0.402-0.115,0.818-0.201,1.246-0.201
			c2.436,0,4.427,1.992,4.427,4.426V33.432z M13.715,9.054c-2.207,0-4.011,1.8-4.011,4.013c0,2.199,1.805,4.004,4.011,4.004
			c2.206,0,4.007-1.805,4.007-4.004C17.723,10.854,15.921,9.054,13.715,9.054L13.715,9.054z M5.705,20.868
			c0.444,0,0.847,0.086,1.246,0.201c-0.689,1.16-1.103,2.507-1.103,3.953v8.41h-4.57v-8.138C1.278,22.859,3.27,20.868,5.705,20.868
			L5.705,20.868z M25.058,1.042c-3.263,0-5.913,2.668-5.913,5.935c0,3.263,2.65,5.933,5.913,5.933c3.27,0,5.934-2.67,5.934-5.933
			C30.991,3.71,28.327,1.042,25.058,1.042L25.058,1.042z M42.824,36.555h-6.989V23.761c0-1.747-0.473-3.395-1.218-4.856
			c0.573-0.165,1.173-0.286,1.805-0.286c3.522,0,6.402,2.865,6.402,6.403V36.555z M14.302,23.761v12.793H7.311V25.021
			c0-3.538,2.879-6.403,6.418-6.403c0.627,0,1.218,0.122,1.791,0.286C14.775,20.366,14.302,22.014,14.302,23.761L14.302,23.761z
			 M15.778,40.266h18.581V23.761c0-5.114-4.17-9.283-9.301-9.283c-5.125,0-9.28,4.169-9.28,9.283V40.266z M15.778,40.266"/>
	</g>
</g>
</svg>
