<?xml version="1.0" encoding="utf-8"?>
<!-- Generator: Adobe Illustrator 16.0.0, SVG Export Plug-In . SVG Version: 6.00 Build 0)  -->
<!DOCTYPE svg PUBLIC "-//W3C//DTD SVG 1.1//EN" "http://www.w3.org/Graphics/SVG/1.1/DTD/svg11.dtd">
<svg version="1.1" id="Layer_1" xmlns="http://www.w3.org/2000/svg" xmlns:xlink="http://www.w3.org/1999/xlink" x="0px" y="0px"
	 width="22px" height="21.5px" viewBox="0 0 22 21.5" enable-background="new 0 0 22 21.5" xml:space="preserve">
<g>
	<path fill="#FFFFFF" d="M14.648,8.898H12.25v6.403h2.398V8.898z M13.852,14.5h-0.801V9.699h0.801V14.5z M13.852,14.5"/>
	<path fill="#FFFFFF" d="M19.051,1.5H3.852C2.969,1.5,2.25,2.219,2.25,3.102v15.199c0,0.879,0.719,1.598,1.602,1.598h12l4.797-5.598
		V3.102C20.648,2.219,19.93,1.5,19.051,1.5L19.051,1.5z M15.852,18.699v-3.598c0-0.48,0.398-0.801,0.797-0.801h2.961L15.852,18.699z
		 M19.852,13.5h-3.203c-0.879,0-1.598,0.719-1.598,1.602v4H3.852c-0.481,0-0.801-0.32-0.801-0.801v-12h16.801V13.5z M19.852,5.5
		H3.051V3.102c0-0.481,0.32-0.801,0.801-0.801h15.199c0.48,0,0.801,0.32,0.801,0.801V5.5z M19.852,5.5"/>
	<path fill="#FFFFFF" d="M14.648,16.102H12.25V18.5h2.398V16.102z M13.852,17.699h-0.801v-0.801h0.801V17.699z M13.852,17.699"/>
</g>
</svg>
