<?xml version="1.0" encoding="utf-8"?>
<!-- Generator: Adobe Illustrator 16.0.0, SVG Export Plug-In . SVG Version: 6.00 Build 0)  -->
<!DOCTYPE svg PUBLIC "-//W3C//DTD SVG 1.1//EN" "http://www.w3.org/Graphics/SVG/1.1/DTD/svg11.dtd">
<svg version="1.1" id="Layer_1" xmlns="http://www.w3.org/2000/svg" xmlns:xlink="http://www.w3.org/1999/xlink" x="0px" y="0px"
	 width="85px" height="83px" viewBox="0 0 85 83" enable-background="new 0 0 85 83" xml:space="preserve">
<g>
	<path fill="#FFFFFF" d="M67.819,11H55.973H52.88c-3.916,0-7.119,3.203-7.119,7.119v4.693v10.246v7.119h7.119h12.439h2.5
		c3.916,0,7.119-3.203,7.119-7.119v-3.092V18.119V11H67.819L67.819,11z M17.119,11h11.847h3.093c3.915,0,7.119,3.203,7.119,7.119
		v4.693v10.246v7.119h-7.119h-12.44h-2.5c-3.916,0-7.119-3.203-7.119-7.119v-3.092V18.119V11H17.119L17.119,11z"/>
	<path fill="#FFFFFF" d="M16.59,17.182c18.138,0,15.997-1.287,15.997,16.813C14.448,33.995,16.59,35.281,16.59,17.182L16.59,17.182z
		"/>
	<path fill="#FFFFFF" d="M17.119,75.944h11.847h3.093c3.915,0,7.119-3.203,7.119-7.118v-4.694V53.887v-7.119h-7.119h-12.44h-2.5
		c-3.916,0-7.119,3.203-7.119,7.119v3.092v11.848v7.118H17.119L17.119,75.944z M67.819,75.944H55.973H52.88
		c-3.916,0-7.119-3.203-7.119-7.118v-4.694V53.887v-7.119h7.119h12.439h2.5c3.916,0,7.119,3.203,7.119,7.119v3.092v11.848v7.118
		H67.819L67.819,75.944z"/>
	<path fill="#FFFFFF" d="M68.348,17.182c-18.139,0-15.996-1.287-15.996,16.813C70.489,33.995,68.348,35.281,68.348,17.182
		L68.348,17.182z M52.352,52.949c18.138,0,15.996-1.286,15.996,16.813C50.209,69.763,52.352,71.049,52.352,52.949L52.352,52.949z
		 M32.587,52.949c-18.139,0-15.997-1.286-15.997,16.813C34.729,69.763,32.587,71.049,32.587,52.949L32.587,52.949z"/>
</g>
</svg>
