<?xml version="1.0" encoding="utf-8"?>
<!-- Generator: Adobe Illustrator 16.0.0, SVG Export Plug-In . SVG Version: 6.00 Build 0)  -->
<!DOCTYPE svg PUBLIC "-//W3C//DTD SVG 1.1//EN" "http://www.w3.org/Graphics/SVG/1.1/DTD/svg11.dtd">
<svg version="1.1" id="Layer_1" xmlns="http://www.w3.org/2000/svg" xmlns:xlink="http://www.w3.org/1999/xlink" x="0px" y="0px"
	 width="258px" height="222px" viewBox="0 0 258 222" enable-background="new 0 0 258 222" xml:space="preserve">
<g>
	<path fill-rule="evenodd" clip-rule="evenodd" fill="#478B9C" d="M149.52,10.643c16.178-22.878,7.425,18.048,18.545,5.76
		c20.214-19.403,3.873,19.126,17.118,9.166c23.52-15.227,0.186,19.514,15.073,12.24c25.978-10.501-3.513,19.197,12.485,14.871
		c27.496-5.394-7.082,18.184,9.447,16.966c28.019-0.094-10.397,16.517,6.064,18.445c27.529,5.211-13.335,14.251,2.461,19.262
		c26.047,10.327-15.789,11.47-1.227,19.378c23.623,15.069-17.675,8.273-4.872,18.798c20.345,19.266-18.921,4.777-8.339,17.534
		c16.327,22.77-19.485,1.112-11.509,15.639c11.724,25.449-19.342-2.594-14.262,13.179c6.699,27.207-18.501-6.209-16.495,10.243
		c1.426,27.982-16.993-9.599-18.137,6.933c-3.896,27.748-14.869-12.639-19.123,3.377c-9.076,26.51-12.208-15.225-19.416-0.303
		c-13.928,24.313-9.105-17.26-19.007-3.971c-18.277,21.235-5.674-18.673-17.912-7.497c-21.967,17.394-2.038-19.408-16.169-10.752
		c-24.861,12.924,1.671-19.443-13.842-13.616c-26.858,7.982,5.32-18.776-11.016-15.991c-27.883,2.758,8.779-17.43-7.789-17.786
		c-27.901-2.57,11.917-15.454-4.284-18.939c-26.91-7.804,14.627-12.918-0.621-19.407c-24.947-12.756,16.808-9.917,3.063-19.175
		c-22.083-17.247,18.38-6.556,6.636-18.248c-18.419-21.115,19.29-2.96,9.97-16.663c-14.091-24.218,19.502,0.746,12.943-14.474
		c-9.252-26.447,19.008,4.421,15.449-11.763c-4.08-27.722,17.827,7.938,17.396-8.628c1.24-27.992,16.002,11.17,18.713-5.179
		c6.515-27.252,13.6,13.996,19.356-1.544C141.776-17.031,140.927,24.812,149.52,10.643L149.52,10.643z"/>
	<polygon fill-rule="evenodd" clip-rule="evenodd" fill="#E3603A" points="19.529,35.866 257.192,140.471 230.833,155.953 
		233.761,185.66 0.281,79.381 25.805,64.318 19.529,35.866 	"/>
	<path fill-rule="evenodd" clip-rule="evenodd" fill="#FFFFFF" d="M128.738,22.858c48.546,0,87.903,39.355,87.903,87.905
		c0,48.548-39.356,87.906-87.903,87.906c-48.549,0-87.905-39.357-87.905-87.906C40.833,62.214,80.189,22.858,128.738,22.858
		L128.738,22.858z"/>
	<path fill-rule="evenodd" clip-rule="evenodd" fill="#FFFFFF" stroke="#478B9C" stroke-width="0.5" stroke-miterlimit="2.6131" d="
		M128.738,27.142c46.183,0,83.621,37.438,83.621,83.621c0,46.182-37.438,83.62-83.621,83.62c-46.184,0-83.622-37.438-83.622-83.62
		C45.116,64.58,82.554,27.142,128.738,27.142L128.738,27.142z"/>
	<path fill-rule="evenodd" clip-rule="evenodd" fill="#DFF2F9" d="M128.738,30.99c25.683,0,48.391,11.635,62.131,29.437H66.606
		C80.346,42.625,103.052,30.99,128.738,30.99L128.738,30.99z"/>
	<text transform="matrix(1 0 0 1 92.4312 54.6221)" fill="#1A576D" font-family="'StoneSansIIITCW01-SmBd'" font-size="13.3491">SINCE 2007</text>
	
		<text transform="matrix(1.0628 0 0 1 104.7026 133.4639)" fill="#478B9C" font-family="'News706BT-BoldC-Bold'" font-size="83.1015">7</text>
	<text transform="matrix(1 0 0 1 106.8579 153.5752)" fill="#478B9C" font-family="'StoneSansIIITCW01-SmBd'" font-size="15.3527">YEARS</text>
	<path fill="#478B9C" d="M59.007,125.271c-0.688,0.091-1.344,0.066-1.968-0.07c-0.625-0.137-1.184-0.378-1.678-0.721
		c-0.494-0.344-0.905-0.782-1.231-1.319c-0.327-0.534-0.537-1.156-0.629-1.862c-0.093-0.705-0.052-1.357,0.125-1.954
		c0.176-0.599,0.458-1.13,0.847-1.594c0.386-0.465,0.862-0.843,1.425-1.138c0.562-0.293,1.183-0.486,1.862-0.576
		c0.689-0.091,1.335-0.057,1.939,0.101c0.605,0.157,1.144,0.414,1.617,0.769c0.473,0.356,0.864,0.802,1.173,1.34
		c0.309,0.539,0.508,1.144,0.597,1.813c0.086,0.663,0.048,1.288-0.116,1.882c-0.164,0.592-0.426,1.119-0.787,1.583
		c-0.361,0.466-0.812,0.853-1.355,1.156C60.284,124.985,59.678,125.182,59.007,125.271L59.007,125.271z M58.697,123.936
		c0.52-0.066,1.007-0.201,1.461-0.398c0.454-0.201,0.842-0.462,1.162-0.78c0.322-0.322,0.56-0.7,0.713-1.139
		c0.152-0.438,0.193-0.927,0.122-1.465c-0.075-0.571-0.257-1.05-0.545-1.427c-0.288-0.381-0.634-0.679-1.041-0.894
		c-0.406-0.218-0.846-0.358-1.321-0.424c-0.476-0.067-0.938-0.071-1.389-0.013c-0.467,0.063-0.923,0.187-1.37,0.376
		c-0.446,0.189-0.835,0.441-1.167,0.753c-0.332,0.313-0.583,0.691-0.753,1.13c-0.17,0.439-0.217,0.947-0.143,1.521
		c0.065,0.484,0.213,0.915,0.448,1.293c0.233,0.379,0.538,0.688,0.911,0.931c0.373,0.242,0.806,0.411,1.299,0.508
		C57.577,124.006,58.114,124.015,58.697,123.936L58.697,123.936z"/>
	<path fill="#478B9C" d="M55.898,131.844l3.567-1.024c0.359-0.104,0.644-0.197,0.856-0.282c0.212-0.085,0.379-0.186,0.504-0.305
		c0.168-0.15,0.294-0.35,0.374-0.599c0.082-0.251,0.071-0.554-0.029-0.903c-0.094-0.325-0.253-0.579-0.477-0.767
		c-0.225-0.186-0.498-0.305-0.82-0.359c-0.212-0.031-0.442-0.027-0.688,0.017c-0.247,0.044-0.521,0.109-0.82,0.193l-3.349,0.962
		l-0.349-1.218l6.415-1.846l0.35,1.222l-0.911,0.261c0.467,0.144,0.828,0.361,1.083,0.653c0.257,0.294,0.448,0.661,0.576,1.106
		c0.137,0.478,0.14,0.938,0.008,1.379c-0.132,0.441-0.375,0.792-0.727,1.05c-0.084,0.062-0.173,0.117-0.265,0.165
		c-0.092,0.05-0.199,0.101-0.319,0.148c-0.121,0.048-0.268,0.1-0.44,0.153c-0.175,0.055-0.387,0.12-0.635,0.189l-3.552,1.023
		L55.898,131.844L55.898,131.844z"/>
	<polygon fill="#478B9C" points="56.883,135.032 66.195,131.981 66.59,133.188 57.279,136.238 56.883,135.032 	"/>
	<path fill="#478B9C" d="M65.718,135.845c-0.079-0.197-0.077-0.393,0.004-0.584c0.081-0.191,0.217-0.324,0.407-0.4
		c0.206-0.082,0.404-0.087,0.594-0.009c0.189,0.078,0.325,0.22,0.407,0.426c0.076,0.189,0.072,0.383-0.014,0.574
		c-0.086,0.192-0.224,0.327-0.414,0.402c-0.19,0.078-0.382,0.076-0.578-0.005C65.931,136.169,65.795,136.034,65.718,135.845
		L65.718,135.845z M58.034,138.235l6.194-2.484l0.472,1.178l-6.194,2.483L58.034,138.235L58.034,138.235z"/>
	<path fill="#478B9C" d="M61.284,145.389l3.288-1.72c0.333-0.174,0.593-0.321,0.783-0.448c0.191-0.123,0.336-0.257,0.433-0.397
		c0.136-0.183,0.218-0.403,0.248-0.664c0.029-0.262-0.042-0.555-0.211-0.878c-0.156-0.298-0.363-0.519-0.621-0.655
		c-0.257-0.136-0.549-0.199-0.875-0.188c-0.215,0.012-0.439,0.063-0.671,0.154c-0.233,0.094-0.489,0.211-0.764,0.354l-3.087,1.614
		l-0.588-1.123l5.914-3.092l0.588,1.123l-0.84,0.439c0.487,0.047,0.884,0.187,1.193,0.423c0.31,0.235,0.572,0.556,0.786,0.968
		c0.23,0.44,0.325,0.89,0.284,1.351c-0.042,0.459-0.208,0.85-0.501,1.174c-0.071,0.075-0.146,0.146-0.226,0.216
		c-0.081,0.066-0.175,0.136-0.283,0.208c-0.109,0.071-0.242,0.151-0.401,0.238c-0.16,0.089-0.354,0.194-0.584,0.313l-3.275,1.714
		L61.284,145.389L61.284,145.389z"/>
	<path fill="#478B9C" d="M66.233,152.491c-0.44-0.141-0.827-0.352-1.163-0.634c-0.335-0.28-0.622-0.607-0.865-0.982
		c-0.468-0.726-0.662-1.453-0.582-2.181c0.056-0.524,0.238-1.009,0.546-1.457c0.309-0.449,0.733-0.847,1.271-1.193
		c0.472-0.305,0.96-0.497,1.467-0.58c0.508-0.085,0.991-0.041,1.45,0.128c0.649,0.218,1.188,0.658,1.618,1.322
		c0.245,0.383,0.398,0.755,0.459,1.119c0.059,0.363,0.033,0.721-0.082,1.066c-0.104,0.365-0.289,0.702-0.556,1.011
		c-0.267,0.311-0.59,0.589-0.971,0.835c-0.038,0.023-0.085,0.055-0.141,0.089c-0.056,0.037-0.121,0.073-0.192,0.108l-2.505-3.88
		c-0.64,0.435-1.054,0.944-1.246,1.527c-0.19,0.584-0.08,1.192,0.33,1.828c0.154,0.24,0.371,0.464,0.646,0.67
		c0.277,0.208,0.562,0.367,0.855,0.477L66.233,152.491L66.233,152.491z M68.615,149.683c0.217-0.14,0.403-0.302,0.56-0.489
		c0.155-0.184,0.27-0.38,0.343-0.587c0.073-0.203,0.099-0.42,0.077-0.645c-0.024-0.224-0.104-0.443-0.245-0.66
		c-0.27-0.417-0.637-0.676-1.103-0.774c-0.465-0.098-0.994,0.021-1.585,0.349l1.852,2.872L68.615,149.683L68.615,149.683z"/>
	<polygon fill="#478B9C" points="68.741,157.106 76.124,151.378 79.07,155.173 78.311,155.761 76.159,152.989 73.775,154.839 
		75.886,157.559 75.126,158.146 73.016,155.427 70.294,157.539 72.799,160.766 72.04,161.356 68.741,157.106 	"/>
	<path fill="#478B9C" d="M79.208,168.27l2.563-2.702c0.27-0.285,0.474-0.524,0.614-0.725c0.14-0.199,0.238-0.405,0.295-0.62
		c0.046-0.203,0.039-0.409-0.02-0.62c-0.06-0.208-0.176-0.396-0.35-0.562c-0.206-0.196-0.45-0.32-0.728-0.377
		c-0.277-0.056-0.577-0.026-0.894,0.09c-0.138,0.055-0.285,0.135-0.443,0.243c-0.158,0.109-0.359,0.29-0.604,0.547l-2.564,2.704
		l-0.911-0.863l2.574-2.711c0.478-0.505,0.769-0.908,0.875-1.213c0.069-0.217,0.084-0.435,0.044-0.658
		c-0.04-0.222-0.161-0.428-0.361-0.619c-0.278-0.264-0.574-0.403-0.885-0.424c-0.313-0.022-0.614,0.046-0.907,0.197
		c-0.18,0.087-0.353,0.205-0.519,0.354c-0.166,0.147-0.331,0.311-0.498,0.484l-2.444,2.574l-0.92-0.872l4.595-4.841l0.92,0.873
		l-0.653,0.688c0.375-0.109,0.75-0.125,1.127-0.044c0.376,0.082,0.727,0.274,1.049,0.581c0.342,0.324,0.561,0.676,0.655,1.057
		c0.094,0.378,0.056,0.779-0.116,1.205c0.457-0.143,0.9-0.158,1.332-0.042c0.431,0.111,0.805,0.32,1.121,0.619
		c0.361,0.344,0.594,0.708,0.698,1.088c0.104,0.381,0.102,0.752-0.009,1.115c-0.034,0.114-0.076,0.221-0.124,0.323
		c-0.047,0.102-0.109,0.208-0.185,0.321s-0.172,0.237-0.288,0.372c-0.115,0.134-0.26,0.292-0.431,0.473l-2.702,2.847L79.208,168.27
		L79.208,168.27z"/>
	<path fill="#478B9C" d="M84.459,172.516c-0.371-0.264-0.649-0.596-0.834-0.993c-0.186-0.4-0.257-0.823-0.212-1.271l-0.625,0.883
		l-1.013-0.719l5.668-7.994l1.013,0.72l-2.479,3.496c0.418-0.175,0.855-0.25,1.311-0.233c0.456,0.018,0.913,0.189,1.37,0.513
		c0.348,0.248,0.626,0.544,0.83,0.885c0.206,0.341,0.334,0.711,0.386,1.107c0.051,0.396,0.021,0.805-0.093,1.227
		c-0.113,0.42-0.316,0.841-0.61,1.254c-0.295,0.412-0.631,0.754-1.014,1.022c-0.381,0.27-0.782,0.458-1.202,0.564
		c-0.419,0.107-0.844,0.125-1.274,0.055C85.251,172.959,84.844,172.787,84.459,172.516L84.459,172.516z M84.787,171.731
		c0.254,0.18,0.536,0.295,0.843,0.346c0.308,0.049,0.62,0.006,0.935-0.132c0.257-0.101,0.511-0.258,0.758-0.469
		c0.248-0.21,0.49-0.484,0.729-0.818c0.246-0.349,0.417-0.685,0.512-1.011c0.094-0.325,0.13-0.625,0.108-0.904
		c-0.021-0.277-0.096-0.525-0.223-0.746c-0.127-0.222-0.292-0.405-0.495-0.548c-0.226-0.161-0.47-0.268-0.734-0.325
		c-0.265-0.058-0.541-0.051-0.826,0.021c-0.285,0.072-0.573,0.212-0.866,0.424c-0.292,0.213-0.574,0.514-0.848,0.897
		c-0.216,0.305-0.381,0.611-0.495,0.917c-0.113,0.305-0.168,0.604-0.165,0.889c0.003,0.286,0.067,0.556,0.19,0.806
		C84.333,171.329,84.524,171.546,84.787,171.731L84.787,171.731z"/>
	<path fill="#478B9C" d="M94.207,172.149c-0.076-0.188-0.172-0.339-0.282-0.446c-0.111-0.111-0.226-0.198-0.341-0.266
		c-0.224-0.128-0.467-0.162-0.732-0.104c-0.265,0.06-0.535,0.23-0.81,0.516c-0.151,0.137-0.302,0.311-0.451,0.517
		c-0.15,0.207-0.314,0.471-0.496,0.787l-1.472,2.57l-1.101-0.631l3.315-5.793l1.103,0.631l-0.578,1.009
		c0.081-0.087,0.163-0.159,0.246-0.214c0.242-0.188,0.507-0.314,0.797-0.373c0.292-0.06,0.583-0.005,0.875,0.163
		c0.171,0.098,0.32,0.229,0.448,0.401c0.127,0.17,0.236,0.412,0.327,0.717L94.207,172.149L94.207,172.149z"/>
	<path fill="#478B9C" d="M95.169,178.938c-0.378-0.196-0.71-0.456-0.995-0.777c-0.283-0.325-0.498-0.689-0.641-1.101
		c-0.142-0.41-0.197-0.854-0.165-1.333c0.032-0.479,0.18-0.973,0.442-1.479c0.241-0.464,0.536-0.849,0.888-1.147
		c0.351-0.3,0.731-0.512,1.141-0.634c0.409-0.124,0.833-0.165,1.268-0.126c0.436,0.038,0.863,0.167,1.281,0.385
		c0.412,0.212,0.76,0.486,1.047,0.821c0.289,0.334,0.499,0.703,0.63,1.108c0.131,0.403,0.176,0.836,0.133,1.294
		c-0.042,0.459-0.185,0.921-0.426,1.389c-0.262,0.507-0.579,0.91-0.951,1.212c-0.374,0.305-0.768,0.516-1.186,0.636
		c-0.417,0.119-0.841,0.155-1.267,0.11C95.941,179.251,95.541,179.131,95.169,178.938L95.169,178.938z M95.508,178.256
		c0.237,0.123,0.491,0.189,0.762,0.2c0.27,0.01,0.541-0.045,0.814-0.166c0.272-0.119,0.538-0.305,0.796-0.563
		c0.259-0.257,0.493-0.593,0.708-1.002c0.2-0.387,0.33-0.757,0.392-1.104c0.06-0.351,0.062-0.667,0.004-0.954
		c-0.058-0.284-0.168-0.534-0.333-0.749c-0.165-0.214-0.372-0.389-0.625-0.521c-0.253-0.131-0.517-0.199-0.789-0.206
		c-0.273-0.006-0.542,0.051-0.809,0.169c-0.267,0.117-0.524,0.302-0.774,0.554c-0.251,0.25-0.474,0.564-0.671,0.945
		c-0.213,0.409-0.347,0.797-0.404,1.157c-0.057,0.361-0.056,0.688,0.004,0.979c0.06,0.292,0.172,0.546,0.336,0.761
		C95.083,177.972,95.279,178.139,95.508,178.256L95.508,178.256z"/>
	<path fill="#478B9C" d="M103.263,173.61c-0.199-0.076-0.341-0.21-0.424-0.401c-0.084-0.189-0.089-0.378-0.015-0.569
		c0.082-0.209,0.214-0.354,0.399-0.439c0.186-0.087,0.384-0.089,0.59-0.007c0.191,0.075,0.327,0.208,0.409,0.402
		c0.082,0.194,0.086,0.387,0.012,0.578c-0.074,0.188-0.208,0.33-0.398,0.417C103.645,173.678,103.454,173.687,103.263,173.61
		L103.263,173.61z M99.759,180.856l2.417-6.221l1.183,0.459l-2.417,6.223L99.759,180.856L99.759,180.856z"/>
	<path fill="#478B9C" d="M107.498,183.638l0.362-1.061c-0.332,0.282-0.716,0.474-1.158,0.578c-0.439,0.104-0.916,0.066-1.429-0.108
		c-0.463-0.157-0.841-0.391-1.136-0.697c-0.295-0.31-0.511-0.658-0.651-1.047c-0.14-0.393-0.205-0.807-0.195-1.245
		c0.009-0.439,0.085-0.869,0.23-1.292c0.164-0.479,0.388-0.896,0.673-1.251c0.286-0.351,0.613-0.635,0.98-0.843
		c0.367-0.209,0.761-0.332,1.178-0.373c0.418-0.04,0.842,0.012,1.272,0.16c0.27,0.092,0.503,0.211,0.702,0.358
		c0.199,0.15,0.362,0.311,0.491,0.486c0.127,0.177,0.229,0.359,0.306,0.549c0.076,0.19,0.131,0.373,0.166,0.544l1.379-4.03
		l1.186,0.407l-3.169,9.27L107.498,183.638L107.498,183.638z M105.781,182.347c0.606,0.207,1.159,0.144,1.66-0.195
		c0.5-0.337,0.889-0.908,1.166-1.716c0.127-0.372,0.195-0.724,0.206-1.059c0.012-0.334-0.03-0.639-0.125-0.911
		c-0.096-0.272-0.244-0.508-0.443-0.71c-0.2-0.198-0.444-0.347-0.729-0.445c-0.556-0.19-1.082-0.128-1.58,0.188
		c-0.498,0.313-0.879,0.858-1.144,1.633c-0.135,0.396-0.21,0.767-0.226,1.115c-0.016,0.345,0.021,0.66,0.109,0.941
		c0.088,0.277,0.227,0.517,0.416,0.719C105.283,182.107,105.511,182.256,105.781,182.347L105.781,182.347z"/>
	<path fill="#478B9C" d="M116.133,184.989c-0.413,0.207-0.837,0.326-1.274,0.36c-0.436,0.033-0.871-0.003-1.306-0.102
		c-0.841-0.191-1.487-0.576-1.94-1.157c-0.326-0.409-0.533-0.886-0.626-1.423c-0.091-0.535-0.066-1.116,0.077-1.741
		c0.125-0.546,0.341-1.026,0.645-1.44c0.305-0.414,0.681-0.722,1.128-0.92c0.616-0.298,1.311-0.359,2.081-0.183
		c0.442,0.103,0.812,0.263,1.11,0.48c0.296,0.219,0.525,0.493,0.688,0.821c0.18,0.334,0.283,0.704,0.307,1.113
		c0.026,0.407-0.012,0.831-0.114,1.274c-0.009,0.042-0.022,0.099-0.037,0.161c-0.015,0.065-0.035,0.137-0.062,0.212l-4.503-1.03
		c-0.154,0.76-0.097,1.415,0.174,1.966c0.271,0.55,0.776,0.907,1.513,1.077c0.278,0.063,0.588,0.073,0.932,0.027
		c0.343-0.043,0.657-0.13,0.943-0.256L116.133,184.989L116.133,184.989z M115.878,181.317c0.058-0.253,0.077-0.5,0.06-0.741
		c-0.019-0.241-0.073-0.461-0.164-0.66c-0.091-0.2-0.224-0.372-0.396-0.516c-0.172-0.144-0.384-0.246-0.635-0.301
		c-0.487-0.114-0.93-0.039-1.331,0.215c-0.401,0.256-0.699,0.707-0.892,1.357l3.331,0.761L115.878,181.317L115.878,181.317z"/>
	<path fill="#478B9C" d="M121.923,180.906c-0.143-0.146-0.286-0.247-0.431-0.307c-0.145-0.061-0.283-0.098-0.415-0.116
		c-0.256-0.033-0.496,0.025-0.718,0.183c-0.223,0.153-0.408,0.414-0.554,0.781c-0.087,0.185-0.161,0.401-0.221,0.649
		c-0.06,0.248-0.113,0.555-0.162,0.915l-0.387,2.938l-1.258-0.165l0.874-6.618l1.258,0.167l-0.152,1.152
		c0.041-0.111,0.09-0.209,0.146-0.292c0.151-0.266,0.35-0.481,0.598-0.649c0.246-0.163,0.537-0.224,0.872-0.18
		c0.194,0.025,0.382,0.094,0.565,0.204c0.184,0.108,0.375,0.289,0.576,0.539L121.923,180.906L121.923,180.906z"/>
	<path fill="#478B9C" d="M125.366,187.536c-0.185,0.368-0.365,0.701-0.541,0.997c-0.174,0.293-0.389,0.541-0.642,0.741
		c-0.236,0.174-0.495,0.304-0.776,0.39c-0.283,0.089-0.632,0.129-1.05,0.12l-0.321-0.006l0.018-0.893l0.293,0.003
		c0.429,0.012,0.758-0.058,0.994-0.207c0.234-0.145,0.461-0.395,0.682-0.747c0.074-0.13,0.196-0.364,0.368-0.699
		c0.172-0.335,0.364-0.745,0.579-1.229l-2.523-6.021l1.181-0.296l1.981,5.141l2.21-5.059l1.037,0.264L125.366,187.536
		L125.366,187.536z"/>
	<path fill="#478B9C" d="M140.762,180.683c0.113,0.855,0.055,1.649-0.178,2.382c-0.231,0.729-0.635,1.353-1.213,1.871
		c-0.211,0.18-0.432,0.34-0.665,0.483c-0.232,0.142-0.495,0.27-0.791,0.38c-0.292,0.111-0.628,0.209-0.997,0.294
		c-0.369,0.084-0.797,0.158-1.283,0.225l-2.237,0.294l-1.223-9.264l2.195-0.291c0.405-0.053,0.779-0.097,1.121-0.126
		c0.341-0.033,0.661-0.048,0.965-0.048c0.3,0,0.586,0.022,0.855,0.061c0.27,0.042,0.536,0.103,0.799,0.185
		c0.677,0.227,1.254,0.631,1.736,1.22C140.327,178.935,140.634,179.712,140.762,180.683L140.762,180.683z M139.361,180.896
		c-0.038-0.3-0.103-0.595-0.19-0.884c-0.086-0.29-0.204-0.557-0.349-0.803c-0.145-0.245-0.322-0.464-0.531-0.658
		c-0.208-0.19-0.46-0.344-0.754-0.457c-0.369-0.149-0.788-0.225-1.256-0.225c-0.467-0.002-1.017,0.039-1.652,0.124l-1.046,0.137
		l0.974,7.358l0.964-0.128c0.753-0.098,1.363-0.228,1.834-0.389c0.475-0.162,0.867-0.406,1.182-0.737
		c0.354-0.378,0.606-0.841,0.755-1.384C139.439,182.307,139.462,181.654,139.361,180.896L139.361,180.896z"/>
	<path fill="#478B9C" d="M142.304,177.208c-0.208,0.038-0.399-0.004-0.569-0.124c-0.169-0.118-0.271-0.279-0.306-0.48
		c-0.039-0.221,0-0.414,0.115-0.584c0.115-0.169,0.282-0.271,0.501-0.311c0.203-0.034,0.389,0.012,0.559,0.136
		c0.17,0.123,0.273,0.285,0.309,0.488c0.035,0.2-0.006,0.39-0.126,0.563C142.667,177.069,142.507,177.174,142.304,177.208
		L142.304,177.208z M143.043,185.224l-1.139-6.577l1.25-0.215l1.138,6.577L143.043,185.224L143.043,185.224z"/>
	<path fill="#478B9C" d="M152.012,182.254c0.108,0.376,0.184,0.699,0.223,0.965c0.038,0.266,0.061,0.532,0.063,0.801
		c-0.01,0.809-0.25,1.469-0.722,1.984c-0.471,0.517-1.097,0.887-1.876,1.109c-0.437,0.127-0.875,0.191-1.317,0.198
		c-0.441,0.008-0.883-0.036-1.317-0.135l0.077-0.938c0.355,0.102,0.719,0.156,1.097,0.163c0.378,0.009,0.754-0.044,1.13-0.152
		c0.634-0.18,1.114-0.527,1.438-1.037c0.221-0.359,0.316-0.736,0.288-1.125c-0.027-0.389-0.109-0.816-0.242-1.276l-0.164-0.565
		c-0.05,0.146-0.119,0.302-0.204,0.469c-0.087,0.167-0.201,0.34-0.348,0.51c-0.144,0.17-0.323,0.33-0.536,0.475
		c-0.214,0.144-0.478,0.261-0.796,0.352c-0.478,0.14-0.926,0.164-1.34,0.075c-0.415-0.09-0.787-0.259-1.117-0.507
		c-0.33-0.247-0.612-0.552-0.848-0.915c-0.231-0.365-0.407-0.751-0.527-1.16c-0.139-0.488-0.195-0.959-0.168-1.412
		c0.027-0.452,0.127-0.867,0.3-1.245c0.175-0.38,0.418-0.706,0.733-0.982c0.314-0.275,0.688-0.476,1.125-0.602
		c0.485-0.138,0.936-0.168,1.344-0.08c0.41,0.087,0.774,0.268,1.096,0.548l-0.266-0.926l1.218-0.35L152.012,182.254L152.012,182.254
		z M148.82,183.186c0.335-0.095,0.606-0.245,0.816-0.449c0.21-0.205,0.36-0.448,0.456-0.729c0.097-0.281,0.136-0.597,0.124-0.946
		c-0.013-0.348-0.073-0.715-0.184-1.1c-0.222-0.769-0.572-1.321-1.052-1.655c-0.48-0.334-1.009-0.419-1.582-0.254
		c-0.298,0.087-0.543,0.229-0.737,0.435c-0.19,0.201-0.337,0.443-0.436,0.723c-0.101,0.279-0.151,0.584-0.148,0.911
		c0.003,0.328,0.052,0.662,0.15,1.006c0.111,0.385,0.261,0.719,0.449,1.009c0.189,0.289,0.399,0.521,0.633,0.7
		c0.232,0.179,0.479,0.299,0.742,0.361C148.315,183.26,148.572,183.258,148.82,183.186L148.82,183.186z"/>
	<path fill="#478B9C" d="M152.242,174.417c-0.202,0.065-0.397,0.052-0.583-0.044c-0.184-0.093-0.308-0.236-0.372-0.433
		c-0.071-0.21-0.06-0.407,0.029-0.593c0.089-0.183,0.241-0.309,0.451-0.377c0.196-0.066,0.387-0.049,0.572,0.049
		c0.187,0.098,0.313,0.246,0.376,0.439c0.064,0.195,0.05,0.386-0.043,0.575C152.581,174.226,152.438,174.352,152.242,174.417
		L152.242,174.417z M154.131,182.238l-2.077-6.343l1.205-0.395l2.075,6.344L154.131,182.238L154.131,182.238z"/>
	<path fill="#478B9C" d="M160.388,179.377c-0.158,0.209-0.333,0.399-0.518,0.571c-0.188,0.174-0.397,0.311-0.632,0.418
		c-0.69,0.313-1.277,0.295-1.766-0.053c-0.094-0.074-0.181-0.153-0.261-0.232c-0.081-0.08-0.154-0.175-0.223-0.279
		c-0.067-0.107-0.139-0.233-0.215-0.382c-0.076-0.146-0.159-0.316-0.246-0.51l-1.501-3.322l-0.851,0.385l-0.307-0.68l0.849-0.385
		l-0.664-1.474l0.998-0.874l0.822,1.825l1.571-0.71l0.309,0.68l-1.571,0.711l1.419,3.138c0.234,0.519,0.472,0.906,0.713,1.158
		c0.24,0.252,0.541,0.297,0.896,0.137c0.114-0.05,0.224-0.12,0.331-0.209c0.105-0.088,0.222-0.211,0.344-0.373L160.388,179.377
		L160.388,179.377z"/>
	<path fill="#478B9C" d="M158.443,171.72c-0.189,0.098-0.382,0.118-0.582,0.055c-0.198-0.06-0.344-0.183-0.439-0.364
		c-0.102-0.196-0.126-0.394-0.067-0.589c0.059-0.196,0.187-0.346,0.382-0.45c0.183-0.093,0.374-0.108,0.573-0.043
		c0.201,0.067,0.349,0.19,0.444,0.371c0.094,0.183,0.11,0.374,0.05,0.576C158.744,171.477,158.623,171.625,158.443,171.72
		L158.443,171.72z M161.591,179.127l-3.091-5.914l1.125-0.589l3.092,5.917L161.591,179.127L161.591,179.127z"/>
	<polygon fill="#478B9C" points="163.895,177.967 163.622,177.491 164.526,170.866 161.671,172.489 161.271,171.781 
		165.458,169.399 165.743,169.9 164.889,176.448 168.337,174.488 168.746,175.207 163.895,177.967 	"/>
	<path fill="#478B9C" d="M166.111,167.307c-0.181,0.113-0.373,0.148-0.574,0.104c-0.204-0.042-0.361-0.148-0.472-0.322
		c-0.122-0.188-0.16-0.381-0.122-0.581c0.042-0.199,0.155-0.363,0.342-0.482c0.171-0.11,0.36-0.144,0.565-0.095
		c0.206,0.047,0.364,0.158,0.475,0.33c0.111,0.172,0.146,0.36,0.104,0.567C166.388,167.034,166.283,167.194,166.111,167.307
		L166.111,167.307z M169.922,174.393l-3.62-5.608l1.067-0.687l3.617,5.609L169.922,174.393L169.922,174.393z"/>
	<path fill="#478B9C" d="M176.294,169.798l-2.29-2.921c-0.229-0.293-0.424-0.523-0.582-0.688c-0.157-0.165-0.313-0.282-0.469-0.353
		c-0.205-0.1-0.438-0.14-0.7-0.121c-0.261,0.018-0.537,0.141-0.823,0.365c-0.266,0.208-0.443,0.451-0.53,0.73
		c-0.087,0.278-0.096,0.576-0.028,0.895c0.052,0.208,0.143,0.423,0.275,0.633c0.133,0.212,0.296,0.442,0.487,0.687l2.15,2.741
		l-0.998,0.782l-4.117-5.251l0.997-0.782l0.584,0.746c-0.042-0.487,0.023-0.905,0.199-1.251c0.174-0.348,0.443-0.662,0.809-0.949
		c0.391-0.306,0.817-0.481,1.274-0.525c0.46-0.04,0.874,0.05,1.247,0.28c0.088,0.055,0.172,0.115,0.253,0.183
		c0.08,0.067,0.168,0.147,0.257,0.241c0.092,0.091,0.192,0.208,0.309,0.35c0.117,0.141,0.254,0.313,0.412,0.517l2.283,2.91
		L176.294,169.798L176.294,169.798z"/>
	<path fill="#478B9C" d="M182.786,163.015c0.27,0.282,0.484,0.534,0.641,0.753c0.159,0.218,0.3,0.446,0.427,0.682
		c0.364,0.72,0.458,1.421,0.275,2.093c-0.181,0.677-0.565,1.291-1.153,1.85c-0.332,0.313-0.688,0.573-1.077,0.784
		c-0.39,0.209-0.801,0.372-1.233,0.484l-0.362-0.867c0.36-0.073,0.708-0.192,1.047-0.36c0.34-0.167,0.649-0.385,0.936-0.653
		c0.477-0.454,0.743-0.983,0.794-1.584c0.031-0.422-0.056-0.8-0.261-1.132c-0.206-0.333-0.474-0.674-0.804-1.021l-0.404-0.426
		c0.02,0.149,0.034,0.321,0.034,0.509c0.002,0.191-0.023,0.395-0.073,0.612c-0.05,0.22-0.138,0.441-0.259,0.669
		c-0.124,0.227-0.305,0.452-0.542,0.681c-0.361,0.344-0.748,0.569-1.156,0.682c-0.408,0.111-0.817,0.135-1.226,0.065
		c-0.407-0.067-0.798-0.209-1.173-0.422c-0.374-0.215-0.709-0.478-1.005-0.786c-0.348-0.369-0.615-0.76-0.799-1.174
		c-0.186-0.415-0.287-0.829-0.307-1.245c-0.021-0.416,0.046-0.818,0.197-1.207c0.153-0.39,0.392-0.741,0.723-1.054
		c0.366-0.35,0.753-0.578,1.155-0.691s0.81-0.12,1.224-0.02l-0.661-0.697l0.92-0.874L182.786,163.015L182.786,163.015z
		 M180.385,165.312c0.252-0.239,0.424-0.498,0.516-0.776c0.094-0.275,0.114-0.563,0.069-0.856c-0.046-0.295-0.154-0.593-0.325-0.897
		c-0.17-0.301-0.395-0.599-0.67-0.89c-0.552-0.581-1.117-0.91-1.697-0.985c-0.579-0.076-1.085,0.092-1.518,0.502
		c-0.229,0.216-0.379,0.457-0.455,0.726c-0.076,0.268-0.096,0.55-0.057,0.845c0.039,0.292,0.138,0.586,0.29,0.874
		c0.151,0.292,0.352,0.564,0.598,0.824c0.273,0.291,0.563,0.521,0.863,0.688c0.3,0.169,0.596,0.278,0.882,0.331
		c0.29,0.052,0.564,0.046,0.829-0.021C179.973,165.608,180.198,165.489,180.385,165.312L180.385,165.312z"/>
	<path fill="#478B9C" d="M188.125,153.935c0.295,0.229,0.521,0.504,0.68,0.821c0.158,0.314,0.245,0.65,0.259,0.999
		c0.013,0.35-0.042,0.709-0.166,1.077c-0.123,0.365-0.314,0.714-0.573,1.042c-0.323,0.413-0.671,0.734-1.043,0.964
		c-0.372,0.229-0.756,0.396-1.155,0.5l-0.341-0.93c0.414-0.081,0.769-0.218,1.061-0.413c0.294-0.193,0.529-0.401,0.705-0.626
		c0.153-0.197,0.263-0.407,0.328-0.634s0.084-0.445,0.063-0.653c-0.022-0.212-0.078-0.41-0.172-0.594
		c-0.091-0.186-0.211-0.334-0.359-0.45c-0.224-0.176-0.432-0.278-0.624-0.304c-0.195-0.028-0.388-0.034-0.584-0.015
		c-0.23,0.019-0.479,0.063-0.745,0.126c-0.265,0.064-0.538,0.132-0.821,0.203c-0.281,0.071-0.563,0.142-0.84,0.206
		c-0.279,0.065-0.547,0.114-0.811,0.146c-0.345,0.034-0.661,0.023-0.949-0.032c-0.29-0.058-0.563-0.188-0.821-0.392
		c-0.268-0.209-0.468-0.454-0.603-0.734c-0.134-0.282-0.206-0.58-0.213-0.896c-0.006-0.316,0.047-0.641,0.167-0.971
		c0.117-0.333,0.303-0.656,0.548-0.972c0.259-0.327,0.541-0.593,0.852-0.793c0.31-0.198,0.669-0.339,1.084-0.419l0.243,0.837
		c-0.355,0.079-0.638,0.194-0.845,0.343c-0.208,0.148-0.394,0.328-0.559,0.538c-0.16,0.203-0.268,0.403-0.324,0.597
		c-0.054,0.192-0.073,0.378-0.052,0.551c0.022,0.174,0.075,0.335,0.159,0.48c0.084,0.145,0.189,0.268,0.315,0.365
		c0.161,0.128,0.343,0.2,0.55,0.219c0.203,0.021,0.401,0.021,0.588-0.005c0.195-0.016,0.426-0.058,0.697-0.121
		c0.272-0.064,0.55-0.135,0.838-0.21c0.283-0.076,0.558-0.146,0.818-0.213c0.261-0.066,0.486-0.11,0.673-0.134
		c0.407-0.056,0.764-0.045,1.069,0.031C187.528,153.55,187.831,153.705,188.125,153.935L188.125,153.935z"/>
	<path fill="#478B9C" d="M193.358,149.144c0.054,0.456,0.024,0.897-0.093,1.319c-0.117,0.421-0.296,0.818-0.538,1.194
		c-0.464,0.727-1.046,1.204-1.744,1.435c-0.498,0.167-1.015,0.201-1.55,0.107c-0.536-0.097-1.074-0.318-1.613-0.664
		c-0.474-0.302-0.853-0.668-1.139-1.095c-0.287-0.426-0.447-0.885-0.482-1.371c-0.071-0.682,0.107-1.356,0.535-2.021
		c0.243-0.383,0.519-0.676,0.825-0.883c0.307-0.204,0.643-0.327,1.007-0.368c0.375-0.057,0.758-0.027,1.148,0.087
		c0.393,0.115,0.78,0.295,1.162,0.537c0.037,0.025,0.085,0.055,0.14,0.092c0.057,0.035,0.117,0.078,0.181,0.131l-2.495,3.887
		c0.661,0.402,1.297,0.571,1.905,0.503c0.61-0.07,1.118-0.423,1.528-1.059c0.153-0.239,0.267-0.528,0.34-0.867
		c0.076-0.339,0.104-0.663,0.078-0.973L193.358,149.144L193.358,149.144z M189.815,148.141c-0.218-0.142-0.441-0.244-0.677-0.309
		c-0.232-0.063-0.458-0.087-0.676-0.07c-0.219,0.02-0.424,0.084-0.619,0.198c-0.193,0.114-0.359,0.28-0.499,0.495
		c-0.27,0.422-0.352,0.862-0.248,1.325c0.104,0.462,0.431,0.897,0.976,1.3l1.844-2.877L189.815,148.141L189.815,148.141z"/>
	<path fill="#478B9C" d="M191.644,142.398c-0.184,0.086-0.329,0.186-0.435,0.303c-0.106,0.116-0.188,0.233-0.249,0.351
		c-0.12,0.229-0.144,0.475-0.074,0.736c0.069,0.263,0.252,0.523,0.548,0.788c0.146,0.144,0.324,0.287,0.536,0.429
		c0.214,0.141,0.483,0.293,0.807,0.462l2.631,1.363l-0.582,1.128l-5.928-3.07l0.582-1.128l1.033,0.535
		c-0.092-0.077-0.166-0.157-0.225-0.237c-0.2-0.233-0.335-0.494-0.406-0.783c-0.071-0.285-0.03-0.579,0.126-0.881
		c0.089-0.174,0.217-0.329,0.383-0.463c0.166-0.135,0.399-0.255,0.703-0.357L191.644,142.398L191.644,142.398z"/>
	<polygon fill="#478B9C" points="198.184,141.177 197.768,142.087 190.781,141.836 190.994,140.599 196.711,140.901 
		192.732,136.783 193.4,135.899 198.184,141.177 	"/>
	<path fill="#478B9C" d="M192.438,133.963c-0.076,0.2-0.211,0.342-0.4,0.425c-0.19,0.084-0.38,0.089-0.571,0.014
		c-0.208-0.08-0.354-0.214-0.438-0.398c-0.087-0.188-0.089-0.384-0.007-0.592c0.073-0.188,0.206-0.325,0.401-0.407
		c0.193-0.084,0.389-0.088,0.577-0.015c0.191,0.077,0.33,0.209,0.418,0.4C192.507,133.58,192.514,133.772,192.438,133.963
		L192.438,133.963z M199.685,137.466l-6.222-2.417l0.458-1.182l6.223,2.417L199.685,137.466L199.685,137.466z"/>
	<path fill="#478B9C" d="M201.913,129.25c0.093,0.324,0.132,0.663,0.121,1.021c-0.012,0.359-0.083,0.767-0.218,1.229
		c-0.124,0.429-0.318,0.819-0.584,1.173c-0.263,0.354-0.584,0.644-0.961,0.867c-0.374,0.227-0.795,0.37-1.265,0.433
		c-0.466,0.063-0.97,0.018-1.51-0.139c-0.51-0.147-0.949-0.374-1.311-0.678c-0.361-0.305-0.641-0.656-0.84-1.059
		c-0.198-0.399-0.317-0.832-0.353-1.296c-0.038-0.466,0.015-0.938,0.152-1.416c0.126-0.437,0.284-0.795,0.473-1.079
		c0.188-0.282,0.386-0.511,0.595-0.683l0.613,0.622c-0.177,0.153-0.33,0.332-0.462,0.533c-0.135,0.204-0.236,0.426-0.309,0.677
		c-0.104,0.358-0.133,0.701-0.089,1.029s0.146,0.625,0.302,0.894c0.159,0.27,0.375,0.505,0.646,0.702
		c0.271,0.199,0.578,0.347,0.922,0.447c0.384,0.11,0.75,0.149,1.097,0.117c0.348-0.033,0.665-0.124,0.949-0.273
		c0.282-0.15,0.526-0.351,0.73-0.603c0.201-0.252,0.351-0.538,0.445-0.865c0.071-0.247,0.106-0.501,0.102-0.762
		c-0.002-0.261-0.032-0.505-0.087-0.734L201.913,129.25L201.913,129.25z"/>
	<path fill="#478B9C" d="M202.919,122.626c0.227,0.402,0.369,0.819,0.425,1.254c0.057,0.435,0.046,0.869-0.029,1.308
		c-0.146,0.853-0.498,1.516-1.05,1.999c-0.396,0.347-0.857,0.582-1.389,0.701c-0.53,0.12-1.112,0.126-1.745,0.018
		c-0.551-0.095-1.043-0.284-1.473-0.566c-0.431-0.283-0.756-0.642-0.978-1.078c-0.33-0.598-0.429-1.288-0.293-2.068
		c0.078-0.447,0.217-0.825,0.421-1.134c0.201-0.307,0.463-0.551,0.782-0.73c0.323-0.198,0.689-0.319,1.093-0.366
		c0.406-0.049,0.831-0.031,1.28,0.045c0.043,0.009,0.098,0.019,0.162,0.028c0.068,0.013,0.139,0.028,0.218,0.052l-0.789,4.55
		c0.765,0.115,1.418,0.021,1.951-0.278c0.537-0.3,0.867-0.823,0.997-1.567c0.048-0.281,0.042-0.593-0.021-0.934
		c-0.063-0.339-0.166-0.649-0.307-0.925L202.919,122.626L202.919,122.626z M199.264,123.077c-0.255-0.043-0.502-0.049-0.743-0.019
		c-0.238,0.03-0.456,0.098-0.65,0.199c-0.192,0.101-0.356,0.241-0.492,0.422c-0.135,0.181-0.226,0.397-0.27,0.651
		c-0.084,0.491,0.011,0.931,0.287,1.317c0.275,0.387,0.745,0.658,1.403,0.816l0.582-3.367L199.264,123.077L199.264,123.077z"/>
	<path fill="#478B9C" d="M204.181,119.508c-0.05,0.39-0.168,0.751-0.352,1.087c-0.186,0.332-0.417,0.617-0.697,0.849l-0.654-0.558
		c0.228-0.158,0.425-0.36,0.6-0.608c0.172-0.245,0.272-0.489,0.304-0.726c0.053-0.397-0.002-0.702-0.163-0.91
		c-0.161-0.211-0.391-0.335-0.69-0.376c-0.133-0.016-0.254-0.016-0.371,0.006c-0.113,0.02-0.232,0.068-0.354,0.142
		s-0.252,0.17-0.389,0.291c-0.138,0.123-0.296,0.278-0.475,0.469c-0.168,0.185-0.339,0.363-0.513,0.533
		c-0.176,0.169-0.354,0.315-0.536,0.439c-0.183,0.126-0.369,0.217-0.563,0.275c-0.192,0.061-0.397,0.075-0.619,0.048
		c-0.501-0.067-0.886-0.309-1.144-0.727c-0.259-0.414-0.348-0.93-0.265-1.548c0.044-0.344,0.139-0.661,0.28-0.953
		c0.142-0.29,0.315-0.54,0.523-0.745l0.591,0.51c-0.337,0.306-0.529,0.659-0.584,1.066c-0.024,0.186-0.02,0.348,0.015,0.486
		c0.038,0.142,0.088,0.256,0.157,0.353c0.066,0.092,0.146,0.168,0.238,0.218c0.091,0.053,0.178,0.087,0.259,0.097
		c0.211,0.026,0.415-0.015,0.607-0.128c0.197-0.115,0.423-0.303,0.682-0.565c0.322-0.332,0.6-0.606,0.828-0.819
		c0.231-0.211,0.439-0.371,0.632-0.482c0.188-0.108,0.368-0.176,0.545-0.201c0.174-0.025,0.365-0.025,0.577,0.002
		c0.283,0.037,0.529,0.128,0.739,0.271c0.209,0.146,0.38,0.328,0.513,0.545c0.133,0.223,0.222,0.475,0.271,0.759
		C204.22,118.892,204.225,119.19,204.181,119.508L204.181,119.508z"/>
</g>
</svg>
