<?xml version="1.0" encoding="utf-8"?>
<!-- Generator: Adobe Illustrator 16.0.0, SVG Export Plug-In . SVG Version: 6.00 Build 0)  -->
<!DOCTYPE svg PUBLIC "-//W3C//DTD SVG 1.1//EN" "http://www.w3.org/Graphics/SVG/1.1/DTD/svg11.dtd">
<svg version="1.1" id="Layer_1" xmlns="http://www.w3.org/2000/svg" xmlns:xlink="http://www.w3.org/1999/xlink" x="0px" y="0px"
	 width="146px" height="114px" viewBox="0 0 146 114" enable-background="new 0 0 146 114" xml:space="preserve">
<g>
	<path fill-rule="evenodd" clip-rule="evenodd" fill="#FFFFFF" d="M133.055,92.441c-0.549,2.916-1.096,5.833-1.645,8.75
		l-0.303,1.617h-1.646c-37.68,0-75.36,0-113.041,0h-1.984v-1.984c0-2.738,0-5.478,0-8.217c-0.026,0-0.052,0-0.077,0h-1.984v-1.984
		c0-4.013,0-8.026,0-12.039V78.17l0.165-0.379c2.122-4.874,4.245-9.749,6.367-14.623l0.052-0.121l0.068-0.113
		c1.348-2.232,3.632-3.226,6.179-3.195c5.44,0,10.88,0,16.321,0v-7.113c-1.801-0.05-3.602-0.13-5.398-0.267
		c-2.123-0.162-4.291-0.381-6.363-0.881c-1.688-0.407-3.861-1.14-4.465-2.962c-3.208-7.517-6.993-33.975,5.462-35.127l0.091-0.008
		h0.091c31.429,0,62.856,0,94.276,0c3.725-0.115,6.305,1.677,6.479,5.574c1.293,23.799,2.588,47.597,3.881,71.396l0.113,2.092H133.6
		C133.418,92.441,133.236,92.441,133.055,92.441L133.055,92.441z M16.76,74.489h69.082V62.142h-39.78h-0.567v-3.786h1.027v-8.172
		l3.918-0.002c3.077-0.033,4.202-2.094,4.863-4.807c0.256-1.024,0.513-2.05,0.769-3.075c0.56-3.056,2.086-4.579,5.184-4.656
		c4.268,0,8.534,0,12.791,0c9.811-0.336,14.363,8.25,14.498,17.053c0,2.292,0,4.586,0,6.877v0.567h-0.004V75.84v1.35h-1.35H15.584
		l-0.658,1.512c0,3.785,0,7.57,0,11.355c0.498,0,0.996,0,1.494,0h0.567v0.566c0,3.212,0,6.424,0,9.635c37.334,0,74.669,0,112.003,0
		c0.621-3.302,1.24-6.604,1.861-9.905l0.086-0.463h0.471c0.531,0,1.063,0,1.592,0c-1.281-23.601-2.564-47.203-3.848-70.806
		c-0.113-2.505-1.566-3.23-3.895-3.153H51.513v22.712v0.78l-0.651,0.451l-4.208,2.918l-2.35,1.629v-2.86V15.931H30.972
		c-0.729,0.071-1.416,0.284-2.046,0.661c-6.875,4.111-3.929,24.858-1.241,31.011l0.018,0.041l0.011,0.043
		c0.377,1.446,7.369,2.033,8.608,2.127c2.445,0.187,4.899,0.264,7.351,0.307l0.562,0.01l-0.01,1.124h-0.149v7.1h0.967v3.934h-0.567
		c-6.426,0-12.854,0-19.283,0c-1.633-0.02-3.089,0.509-3.964,1.933L16.76,74.489L16.76,74.489z M47.304,15.931v22.77l1.208-0.837
		V15.931H47.304L47.304,15.931z M49.073,52.733v6.857c12.307,0,24.613,0,36.919,0c0-1.625,0-3.247,0-4.868
		c-0.109-7.262-3.533-14.813-11.861-14.528l-0.039,0.001h-0.029c-4.262,0-8.52,0-12.773,0c-1.893,0.051-2.386,0.786-2.711,2.581
		l-0.012,0.062L58.551,42.9c-0.257,1.029-0.514,2.057-0.771,3.084c-0.949,3.898-3.015,6.702-7.329,6.749L49.073,52.733
		L49.073,52.733z M95.877,21.079h25.939c1.146,0,2.188,0.468,2.941,1.222s1.221,1.794,1.221,2.941v12.454
		c0,1.146-0.467,2.188-1.221,2.941l-0.004-0.003c-0.756,0.756-1.797,1.225-2.938,1.225H95.877c-1.141,0-2.182-0.469-2.938-1.225
		l-0.002,0.003c-0.754-0.753-1.223-1.795-1.223-2.941V25.241c0-1.146,0.469-2.188,1.223-2.941
		C93.689,21.547,94.73,21.079,95.877,21.079L95.877,21.079z M121.816,24.079H95.877c-0.318,0-0.609,0.132-0.82,0.343
		c-0.209,0.211-0.342,0.501-0.342,0.82v12.454c0,0.318,0.133,0.609,0.342,0.82v0.006c0.209,0.208,0.498,0.337,0.82,0.337h25.939
		c0.322,0,0.613-0.129,0.82-0.337v-0.006c0.211-0.211,0.342-0.501,0.342-0.82V25.241c0-0.318-0.131-0.609-0.342-0.82
		S122.135,24.079,121.816,24.079L121.816,24.079z"/>
</g>
</svg>
