<?xml version="1.0" encoding="utf-8"?>
<!-- Generator: Adobe Illustrator 16.0.0, SVG Export Plug-In . SVG Version: 6.00 Build 0)  -->
<!DOCTYPE svg PUBLIC "-//W3C//DTD SVG 1.1//EN" "http://www.w3.org/Graphics/SVG/1.1/DTD/svg11.dtd">
<svg version="1.1" id="Layer_1" xmlns="http://www.w3.org/2000/svg" xmlns:xlink="http://www.w3.org/1999/xlink" x="0px" y="0px"
	 width="103px" height="102px" viewBox="0 0 103 102" enable-background="new 0 0 103 102" xml:space="preserve">
<g>
	<path fill="#FFFFFF" d="M93.875,19.891c0-3.09-2.512-5.602-5.602-5.602H61.875c-0.117,0-0.234,0.012-0.348,0.02V7L10,13.875v73.271
		l51.527,7.054v-7.527c0.113,0.009,0.23,0.017,0.348,0.017h26.398c3.09,0,5.602-2.513,5.602-5.599V19.891z M70.922,49.77
		l-9.395-5.95v-2.578h22.859L70.922,49.77z M87.074,42.07v19.66H61.527V46.348l8.867,5.617c0.16,0.102,0.34,0.156,0.527,0.156
		c0.184,0,0.363-0.055,0.523-0.156L87.074,42.07z M25.508,59.785l-0.199-5.496c-0.059-1.726-0.118-3.809-0.118-5.894l-0.058,0.003
		c-0.41,1.833-0.953,3.873-1.457,5.541l-1.567,5.487l-2.23-0.077l-1.32-5.41c-0.403-1.618-0.817-3.583-1.106-5.375h-0.035
		c-0.074,1.859-0.125,3.98-0.219,5.691l-0.215,5.211l-2.496-0.09l0.754-13.566l3.649-0.137l1.214,4.613
		c0.391,1.617,0.782,3.36,1.063,5.008h0.055c0.359-1.621,0.793-3.483,1.211-5.055l1.378-4.746l3.918-0.144l0.747,14.55
		L25.508,59.785z M34.359,60.34c-1.636-0.063-3.23-0.563-4.019-1.051l0.64-2.738c0.856,0.48,2.184,0.977,3.575,1.013
		c1.515,0.035,2.328-0.599,2.328-1.59c0-0.95-0.703-1.496-2.457-2.16c-2.379-0.872-3.899-2.231-3.899-4.372
		c0-2.511,2.004-4.511,5.414-4.64c1.672-0.063,2.922,0.254,3.821,0.629l-0.766,2.832c-0.605-0.285-1.672-0.688-3.121-0.657
		c-1.426,0.036-2.113,0.719-2.113,1.497c0,0.953,0.816,1.367,2.703,2.093c2.644,0.985,3.91,2.403,3.91,4.582
		C40.375,58.371,38.414,60.496,34.359,60.34L34.359,60.34z M56.73,60.188c-1.234,0.351-3.543,0.804-5.805,0.718
		c-3.047-0.117-5.199-0.929-6.676-2.383c-1.453-1.387-2.246-3.438-2.219-5.727c0.024-5.18,3.864-8.281,9.297-8.484
		c2.219-0.086,3.957,0.269,4.824,0.632l-0.84,3.028c-0.965-0.371-2.148-0.664-4.032-0.618c-3.156,0.075-5.484,1.821-5.484,5.258
		c0,3.273,2.105,5.254,5.207,5.332c0.883,0.02,1.598-0.059,1.902-0.199V54.32l-2.629-0.023v-2.858l6.454-0.032V60.188z
		 M90.672,81.09c0,1.32-1.074,2.398-2.398,2.398H61.875c-0.121,0-0.234-0.015-0.348-0.035V63.902h26.57
		c0.563,0,1.023-0.488,1.023-1.082V40.156c0-0.019-0.008-0.043-0.008-0.066c-0.004-0.043-0.004-0.082-0.012-0.125
		c-0.004-0.031-0.012-0.059-0.023-0.09c-0.008-0.035-0.017-0.074-0.031-0.109c-0.012-0.036-0.023-0.067-0.039-0.094
		c-0.012-0.024-0.02-0.047-0.031-0.07c-0.008-0.008-0.012-0.016-0.02-0.024c-0.023-0.039-0.047-0.07-0.074-0.105
		c-0.012-0.016-0.023-0.035-0.039-0.051c-0.188-0.215-0.453-0.352-0.746-0.352h-26.57V17.523c0.113-0.015,0.227-0.035,0.348-0.035
		h26.398c1.324,0,2.398,1.078,2.398,2.403V81.09z M90.672,81.09"/>
</g>
</svg>
