<?xml version="1.0" encoding="utf-8"?>
<!-- Generator: Adobe Illustrator 16.0.0, SVG Export Plug-In . SVG Version: 6.00 Build 0)  -->
<!DOCTYPE svg PUBLIC "-//W3C//DTD SVG 1.1//EN" "http://www.w3.org/Graphics/SVG/1.1/DTD/svg11.dtd">
<svg version="1.1" id="Layer_1" xmlns="http://www.w3.org/2000/svg" xmlns:xlink="http://www.w3.org/1999/xlink" x="0px" y="0px"
	 width="18px" height="25.667px" viewBox="0 0 18 25.667" enable-background="new 0 0 18 25.667" xml:space="preserve">
<g>
	<g>
		<path fill="#575757" d="M17.237,3.609c-0.402-0.539-1.223-0.969-2.109-1.117c0.137-0.598-0.117-1.235-0.676-1.559
			c-0.684-0.394-1.563-0.16-1.957,0.524c-0.078,0.136-0.594,1.14-1.359,2.652C9.819,3.828,8.51,3.566,7.432,3.472
			c-1.023-0.086-2.41-0.094-2.621,0.867C4.53,5.644,6.436,7.253,8.662,8.976c-0.492,0.977-1.007,1.996-1.531,3.031
			c-1.722-0.808-3.125-1.3-3.746-0.656c-0.867,0.898-0.101,2.204,0.785,3.712c0.254,0.434,0.512,0.875,0.742,1.328
			C2.573,21.016,0.6,24.926,0.6,24.926s2.172-3.313,4.828-7.371c0.426,1.227,0.442,2.465-0.648,3.598
			c-0.094,0.094-0.09,0.242,0.004,0.336c0.015,0.012,0.031,0.027,0.046,0.035c0.094,0.055,0.215,0.039,0.293-0.043
			c1.364-1.41,1.215-2.961,0.625-4.422c0.836-1.277,1.711-2.617,2.579-3.942c0.015,0.008,0.035,0.02,0.05,0.027
			c2.508,1.239,4.875,2.411,5.555,1.196c0.672-1.2-1.195-2.817-3.434-4.551c1.184-1.813,2.25-3.45,3.047-4.676
			c1.961,0.394,3.211,0.531,3.625,0.066C17.6,4.707,17.624,4.132,17.237,3.609L17.237,3.609z M5.178,15.867
			c-0.195-0.359-0.402-0.711-0.598-1.043c-0.785-1.344-1.468-2.504-0.851-3.142c0.406-0.422,1.762,0.09,3.183,0.75
			C6.33,13.585,5.745,14.742,5.178,15.867L5.178,15.867z M13.514,14.104c-0.457,0.821-2.934-0.406-4.922-1.387l-0.004-0.004
			c0.563-0.855,1.118-1.707,1.649-2.523C12.167,11.687,13.995,13.25,13.514,14.104L13.514,14.104z M8.881,8.542
			C6.94,7.039,5.057,5.449,5.28,4.441c0.093-0.438,0.804-0.606,2.113-0.492c1.016,0.09,2.258,0.332,3.516,0.601
			C10.334,5.683,9.64,7.054,8.881,8.542L8.881,8.542z M12.608,4.429c-0.074-0.015-0.145-0.031-0.219-0.047
			c-0.207-0.367,0.539-2.242,0.727-2.566c0.195-0.34,0.637-0.461,0.98-0.262c0.309,0.18,0.422,0.555,0.297,0.875
			c-0.414,0.012-0.816,0.09-1.18,0.258c-0.117,0.055-0.172,0.195-0.113,0.316c0.055,0.118,0.195,0.172,0.316,0.118
			c0.203-0.094,0.422-0.145,0.648-0.18C13.667,3.464,12.983,4.261,12.608,4.429L12.608,4.429z M16.819,4.863
			c-0.258,0.285-1.555,0.101-2.992-0.18c0.613-0.945,1.016-1.57,1.121-1.746c0.797,0.109,1.551,0.48,1.906,0.957
			C17.104,4.238,17.092,4.554,16.819,4.863L16.819,4.863z M16.819,4.863"/>
	</g>
</g>
</svg>
