<?xml version="1.0" encoding="utf-8"?>
<!-- Generator: Adobe Illustrator 16.0.0, SVG Export Plug-In . SVG Version: 6.00 Build 0)  -->
<!DOCTYPE svg PUBLIC "-//W3C//DTD SVG 1.1//EN" "http://www.w3.org/Graphics/SVG/1.1/DTD/svg11.dtd">
<svg version="1.1" id="Layer_1" xmlns="http://www.w3.org/2000/svg" xmlns:xlink="http://www.w3.org/1999/xlink" x="0px" y="0px"
	 width="228px" height="227px" viewBox="0 0 228 227" enable-background="new 0 0 228 227" xml:space="preserve">
<circle fill="#7DCFE1" cx="114.5" cy="113" r="113"/>
<path opacity="0.2" fill="#58B0BB" d="M190.605,29.024L31.024,188.605c0,0,77.976,85.395,167.953,0
	C198.978,188.605,269,113.5,190.605,29.024z"/>
<g>
	<path fill-rule="evenodd" clip-rule="evenodd" fill="#FFFFFF" d="M139.647,55.635c-0.456,0-43.105-0.103-43.105-0.103
		c-7.593,0-14.363,6.982-14.363,14.363l-4.155,0.108c-7.594,0-13.801,6.873-13.801,14.252v71.832
		c0,7.401,6.769,14.382,14.362,14.382h53.872c7.61,0,14.364-6.98,14.364-14.382h3.594c7.611,0,14.363-6.962,14.363-14.361V84.345
		L139.647,55.635z M132.457,163.278H78.585c-3.771,0-7.173-3.524-7.173-7.191V84.255c0-5.328,4.384-7.167,10.767-7.167v64.638
		c0,7.399,6.771,14.361,14.363,14.361c0,0,38.95-0.034,43.142-0.034C139.684,160.419,136.824,163.278,132.457,163.278
		L132.457,163.278z M139.647,130.993h-32.32c-1.982,0-3.595-1.598-3.595-3.595c0-1.982,1.612-3.578,3.595-3.578h32.32
		c1.98,0,3.595,1.596,3.595,3.578C143.242,129.396,141.628,130.993,139.647,130.993L139.647,130.993z M139.647,113.05h-32.32
		c-1.982,0-3.595-1.593-3.595-3.59c0-1.985,1.612-3.577,3.595-3.577h32.32c1.98,0,3.595,1.592,3.595,3.577
		C143.242,111.439,141.628,113.05,139.647,113.05L139.647,113.05z M146.821,84.255c-3.824,0-7.174-3.433-7.174-7.167v-14.26
		l17.959,21.427H146.821z M146.821,84.255"/>
</g>
</svg>
