<?xml version="1.0" encoding="utf-8"?>
<!-- Generator: Adobe Illustrator 16.0.0, SVG Export Plug-In . SVG Version: 6.00 Build 0)  -->
<!DOCTYPE svg PUBLIC "-//W3C//DTD SVG 1.1//EN" "http://www.w3.org/Graphics/SVG/1.1/DTD/svg11.dtd">
<svg version="1.1" id="Layer_1" xmlns="http://www.w3.org/2000/svg" xmlns:xlink="http://www.w3.org/1999/xlink" x="0px" y="0px"
	 width="228px" height="227px" viewBox="0 0 228 227" enable-background="new 0 0 228 227" xml:space="preserve">
<circle fill="#674272" cx="114.5" cy="113" r="113"/>
<path opacity="0.2" fill="#502C5E" d="M190.605,29.024L31.024,188.605c0,0,77.976,85.395,167.953,0
	C198.978,188.605,269,113.5,190.605,29.024z"/>
<g>
	<path fill="#FFFFFF" d="M128.687,75.816V57.373H73.354l-14.11,14.742v79.21h40.181v18.442h69.442V75.816H128.687z M99.425,144.519
		H66.051V74.852l10.21-10.672h45.617v11.636H99.425v1.702H71.157v5.329h28.269v8.106c-0.715,0.368-1.413,0.768-2.086,1.199H71.157
		v5.331h20.25c-2.44,3.031-4.101,6.547-4.887,10.329H71.157v5.329H86c0.035,3.38,0.745,6.642,2.062,9.65H71.157v5.33h20.108
		c0.603,0.763,1.235,1.507,1.933,2.198c1.849,1.855,3.959,3.356,6.228,4.515V144.519z M148.292,145.724
		c1.306,1.307,1.306,3.416,0,4.722c-1.3,1.3-3.415,1.3-4.715,0c0,0-21.78-21.816-21.863-21.91
		c-7.487,5.265-17.91,4.567-24.599-2.122c-7.487-7.486-7.487-19.665,0-27.15c7.487-7.488,19.665-7.488,27.152,0
		c6.688,6.688,7.403,17.105,2.139,24.592C126.5,123.932,148.292,145.724,148.292,145.724L148.292,145.724z M162.061,162.96h-55.828
		v-25.84c1.43,0.255,2.883,0.402,4.367,0.402c3.521,0,6.937-0.732,10.086-2.146l5.855,5.856h-15.204v5.329h20.534l7.788,7.788
		c1.66,1.661,3.864,2.577,6.21,2.577c2.347,0,4.557-0.916,6.211-2.577c2.115-2.115,2.919-5.046,2.423-7.788h2.452v-5.329h-5.572
		l-9.649-9.649h15.222v-5.33h-20.552l-3.291-3.291c1.016-2.27,1.672-4.639,1.968-7.038h21.875v-5.33h-21.791
		c-0.309-3.227-1.242-6.395-2.803-9.308h24.594v-5.329h-28.452c-0.153-0.159-0.295-0.332-0.449-0.484
		c-4.65-4.651-10.837-7.215-17.425-7.215c-1.495,0-2.96,0.154-4.396,0.409v-6.045h55.828V162.96z M162.061,162.96"/>
</g>
</svg>
