<?xml version="1.0" encoding="utf-8"?>
<!-- Generator: Adobe Illustrator 16.0.0, SVG Export Plug-In . SVG Version: 6.00 Build 0)  -->
<!DOCTYPE svg PUBLIC "-//W3C//DTD SVG 1.1//EN" "http://www.w3.org/Graphics/SVG/1.1/DTD/svg11.dtd">
<svg version="1.1" id="Layer_1" xmlns="http://www.w3.org/2000/svg" xmlns:xlink="http://www.w3.org/1999/xlink" x="0px" y="0px"
	 width="30px" height="25.875px" viewBox="0 0 30 25.875" enable-background="new 0 0 30 25.875" xml:space="preserve">
<g>
	<g>
		<defs>
			<rect id="SVGID_1_" x="0.875" y="-0.375" width="28.8" height="25"/>
		</defs>
		<clipPath id="SVGID_2_">
			<use xlink:href="#SVGID_1_"  display="none" overflow="visible"/>
		</clipPath>
		<g clip-path="url(#SVGID_2_)">
			<path fill="#91C5A9" d="M5.402,9.805C5.293,9.613,5.359,9.371,5.551,9.258l1.531-0.879L7.078,6.61
				c0-0.219,0.18-0.399,0.402-0.399c0.219,0,0.398,0.18,0.398,0.399v2.23l-1.93,1.113c-0.063,0.035-0.133,0.055-0.199,0.055
				C5.613,10.008,5.477,9.934,5.402,9.805L5.402,9.805z M24.059,15.953l-1.93,1.114v2.226c0,0.224,0.18,0.402,0.402,0.402
				c0.219,0,0.398-0.179,0.398-0.402v-1.766l1.527-0.882c0.191-0.11,0.258-0.356,0.148-0.547
				C24.492,15.906,24.25,15.844,24.059,15.953L24.059,15.953z M13.074,3.613l1.93,1.114l1.93-1.114
				c0.191-0.113,0.258-0.355,0.148-0.546c-0.113-0.192-0.355-0.258-0.547-0.149l-1.531,0.883l-1.531-0.883
				c-0.188-0.105-0.434-0.043-0.547,0.149C12.816,3.258,12.883,3.5,13.074,3.613L13.074,3.613z M16.934,22.293l-1.93-1.112
				l-1.93,1.112c-0.191,0.113-0.258,0.356-0.148,0.551c0.074,0.125,0.211,0.199,0.348,0.199c0.07,0,0.137-0.019,0.199-0.055
				l1.531-0.882l1.531,0.882c0.191,0.11,0.434,0.047,0.547-0.145C17.191,22.649,17.125,22.402,16.934,22.293L16.934,22.293z
				 M7.48,19.695c0.219,0,0.398-0.179,0.398-0.398v-2.229l-1.93-1.114c-0.191-0.109-0.438-0.043-0.547,0.149
				c-0.113,0.187-0.047,0.433,0.145,0.547l1.531,0.882v1.766C7.078,19.517,7.258,19.695,7.48,19.695L7.48,19.695z M22.527,6.211
				c-0.219,0-0.398,0.18-0.398,0.402V8.84l1.93,1.113c0.063,0.035,0.133,0.055,0.199,0.055c0.141,0,0.273-0.074,0.348-0.199
				c0.113-0.192,0.047-0.438-0.145-0.547L22.93,8.379V6.613C22.93,6.391,22.75,6.211,22.527,6.211L22.527,6.211z M29.32,12.953
				c0,0.223-0.18,0.398-0.402,0.398h-0.902l-0.988,1.712c-0.07,0.125-0.203,0.198-0.348,0.198H24.48
				c-0.145,0-0.277-0.073-0.348-0.198l-0.344-0.59l-3.078,1.776v3.556h0.68c0.145,0,0.277,0.077,0.348,0.198l1.105,1.91
				c0.07,0.121,0.07,0.278,0,0.399l-0.988,1.707l0.453,0.785c0.109,0.19,0.043,0.437-0.148,0.547
				c-0.063,0.034-0.133,0.054-0.199,0.054c-0.137,0-0.273-0.07-0.348-0.199l-0.453-0.789l-1.973,0.004
				c-0.145,0-0.273-0.078-0.348-0.203l-1.098-1.905c-0.074-0.125-0.074-0.278,0-0.399l0.34-0.594l-3.078-1.777l-3.078,1.777
				l0.34,0.59c0.074,0.125,0.074,0.278,0,0.399l-1.102,1.909c-0.07,0.125-0.203,0.199-0.348,0.199H8.844l-0.453,0.789
				c-0.074,0.129-0.211,0.199-0.348,0.199c-0.066,0-0.137-0.015-0.199-0.054c-0.191-0.11-0.258-0.356-0.148-0.547l0.453-0.785
				l-0.984-1.707c-0.07-0.125-0.07-0.278,0.004-0.399l1.102-1.91c0.07-0.125,0.203-0.203,0.344-0.203h0.684V16.25l-3.078-1.781
				L5.875,15.06c-0.07,0.125-0.203,0.202-0.344,0.202H3.328c-0.145,0-0.277-0.077-0.348-0.202l-0.984-1.708H1.085
				c-0.218,0-0.398-0.176-0.398-0.398c0-0.222,0.18-0.398,0.398-0.398h0.911l0.984-1.711c0.07-0.121,0.203-0.199,0.348-0.199h2.203
				c0.145,0,0.277,0.078,0.348,0.203l0.34,0.586l3.078-1.777v-3.55h-0.68c-0.145,0-0.277-0.079-0.348-0.204L7.168,3.996
				c-0.074-0.125-0.074-0.277,0-0.402l0.984-1.707L7.699,1.102C7.59,0.91,7.652,0.664,7.848,0.555
				c0.191-0.11,0.434-0.043,0.547,0.148l0.453,0.785h1.973c0.141,0,0.273,0.075,0.348,0.2l1.098,1.91
				c0.074,0.121,0.074,0.273,0,0.398l-0.34,0.586l3.082,1.781l3.078-1.777l-0.344-0.59c-0.07-0.125-0.07-0.277,0-0.398l1.105-1.91
				c0.07-0.125,0.203-0.2,0.344-0.2h1.973l0.453-0.789c0.109-0.191,0.355-0.254,0.547-0.144c0.191,0.109,0.258,0.355,0.148,0.543
				l-0.457,0.789l0.988,1.707c0.07,0.125,0.07,0.277,0,0.398l-1.105,1.91c-0.07,0.125-0.203,0.2-0.348,0.2h-0.68v3.554l3.082,1.777
				l0.34-0.586c0.07-0.125,0.203-0.198,0.344-0.198l2.207-0.004c0.145,0,0.273,0.078,0.348,0.199l0.98,1.711h0.906
				C29.141,12.555,29.32,12.731,29.32,12.953L29.32,12.953z M26.449,14.461l0.641-1.109l0.23-0.398l-0.234-0.398l-0.637-1.109
				l-1.742,0.004l-0.34,0.586l-0.16,0.278l-0.137,0.241l-0.234,0.398l0.23,0.398l0.301,0.52l0.344,0.59H26.449z M19.91,10.121V6.102
				h-0.488l-2.516,4.363l1.207,2.089h5.035l0.246-0.426L19.91,10.121z M17.188,12.555l-0.746-1.293l-0.23-0.398h-0.462l-1.491-0.003
				h-0.461l-0.23,0.401l-0.746,1.293l-0.23,0.398l0.23,0.398l0.746,1.294l0.23,0.397h2.414l0.23-0.397l0.746-1.294l0.23-0.398
				L17.188,12.555z M19.422,2.285l-0.875,1.512l0.34,0.586l0.176,0.301l0.125,0.218l0.23,0.399h1.742l0.871-1.508l-0.641-1.109
				l-0.23-0.399H19.422z M11.523,5.277l-0.246,0.426l2.516,4.36h2.418l2.516-4.36L18.48,5.277l-3.477,2.008L11.523,5.277z
				 M8.613,2.688L7.977,3.793l0.871,1.512h1.738l0.23-0.403l0.133-0.222l0.168-0.293l0.34-0.59l-0.871-1.508H8.844L8.613,2.688z
				 M6.617,12.129l0.246,0.426h5.035l1.207-2.093l-2.52-4.359h-0.488v4.015L6.617,12.129z M5.813,13.578l0.129-0.227l0.23-0.398
				l-0.23-0.398l-0.145-0.246l-0.156-0.273l-0.34-0.59H3.559l-0.637,1.109l-0.23,0.398l0.23,0.398l0.637,1.109h1.742l0.34-0.59
				L5.813,13.578z M10.098,15.785v4.021h0.488l2.516-4.36l-1.203-2.094H6.863l-0.246,0.426L10.098,15.785z M10.586,23.621
				l0.875-1.511l-0.344-0.586l-0.301-0.521l-0.23-0.397H8.848l-0.871,1.507l0.637,1.11l0.23,0.397H10.586z M18.484,20.629
				l0.246-0.426l-2.516-4.354h-2.418l-2.516,4.354l0.246,0.426l3.48-2.008L18.484,20.629z M21.391,23.219l0.641-1.105l-0.871-1.511
				h-1.738l-0.23,0.401l-0.129,0.224l-0.16,0.28l-0.352,0.605l0.871,1.504h1.742L21.391,23.219z M23.391,13.777l-0.246-0.426h-5.031
				l-1.211,2.094l2.52,4.36h0.488v-4.021L23.391,13.777z M23.391,13.777"/>
		</g>
	</g>
</g>
</svg>
