<?xml version="1.0" encoding="utf-8"?>
<!-- Generator: Adobe Illustrator 16.0.0, SVG Export Plug-In . SVG Version: 6.00 Build 0)  -->
<!DOCTYPE svg PUBLIC "-//W3C//DTD SVG 1.1//EN" "http://www.w3.org/Graphics/SVG/1.1/DTD/svg11.dtd">
<svg version="1.1" id="Layer_1" xmlns="http://www.w3.org/2000/svg" xmlns:xlink="http://www.w3.org/1999/xlink" x="0px" y="0px"
	 width="94.667px" height="107px" viewBox="0 0 94.667 107" enable-background="new 0 0 94.667 107" xml:space="preserve">
<g>
	<path fill="#FFFFFF" d="M9.57,0.466c-4.301,0-7.8,3.5-7.8,7.798v90.465c0,4.305,3.5,7.805,7.8,7.805h75.192
		c4.301,0,7.801-3.5,7.801-7.805V8.265c0-4.299-3.5-7.798-7.801-7.798H9.57z M83.406,96.979H10.927V9.999h72.479V96.979z
		 M83.406,96.979"/>
	<path fill="#FFFFFF" d="M31.452,36.458c2.027,0.017,8.307,0.049,8.978,0.049c-13.083,10.957-16.059,41-16.402,45.101
		c-0.164,1.946,1.275,3.663,3.237,3.827c1.946,0.167,3.664-1.375,3.827-3.316c0.834-9.702,5.282-35.241,15.241-41.312H48
		c9.959,6.071,14.407,31.61,15.225,41.312c0.18,1.958,1.897,3.467,3.844,3.316c1.945-0.164,3.401-1.881,3.237-3.827
		c-0.359-4.101-3.336-34.144-16.402-45.101c0.654,0,6.95-0.033,8.962-0.033v2.616h14.13V24.961h-14.13v4.416h-8.929v-2.682H40.38
		v2.682h-8.929v-4.416H17.339v14.113h14.113V36.458z M31.452,36.458"/>
</g>
</svg>
