<?xml version="1.0" encoding="utf-8"?>
<!-- Generator: Adobe Illustrator 16.0.0, SVG Export Plug-In . SVG Version: 6.00 Build 0)  -->
<!DOCTYPE svg PUBLIC "-//W3C//DTD SVG 1.1//EN" "http://www.w3.org/Graphics/SVG/1.1/DTD/svg11.dtd">
<svg version="1.1" id="Layer_1" xmlns="http://www.w3.org/2000/svg" xmlns:xlink="http://www.w3.org/1999/xlink" x="0px" y="0px"
	 width="46px" height="34.25px" viewBox="0 0 46 34.25" enable-background="new 0 0 46 34.25" xml:space="preserve">
<g>
	<path fill="#575757" d="M31.617,18.18l-1.882-2.032c-0.134-0.144-0.317-0.228-0.514-0.237l-0.408-1.642
		c-0.125-0.682-0.644-1.234-1.317-1.408l-5.607-1.442l2.22-2.221l0.131,0.131c0.127,0.128,0.301,0.2,0.48,0.2
		c0.181,0,0.354-0.071,0.479-0.2l1.315-1.313c0.126-0.129,0.198-0.301,0.198-0.481c-0.001-0.181-0.072-0.353-0.198-0.48L25.199,5.74
		c-0.265-0.265-0.695-0.265-0.96,0l-1.313,1.314c-0.264,0.265-0.264,0.695,0,0.96l0.129,0.129l-6.228,6.229l-0.129-0.13
		c-0.265-0.265-0.696-0.265-0.961,0l-1.315,1.314c-0.126,0.127-0.198,0.299-0.198,0.48c0,0.18,0.071,0.353,0.198,0.481l1.315,1.314
		c0.265,0.265,0.696,0.265,0.961,0l1.314-1.315c0.265-0.265,0.265-0.696,0-0.96l-0.131-0.13l2.222-2.222l1.439,5.606
		c0.171,0.669,0.723,1.186,1.408,1.317l1.646,0.415c0.01,0.193,0.095,0.375,0.236,0.507l2.031,1.883
		c0.143,0.133,0.325,0.198,0.507,0.198c0.191,0,0.381-0.072,0.526-0.218l3.699-3.701C31.881,18.93,31.89,18.474,31.617,18.18
		L31.617,18.18z M25.558,19.1l-2.328-0.435c-0.121-0.023-0.214-0.109-0.243-0.225l-1.067-4.15l1.781,1.78
		c-0.017,0.308,0.082,0.622,0.318,0.858c0.44,0.44,1.155,0.439,1.593,0c0.441-0.441,0.441-1.154,0-1.595
		c-0.233-0.236-0.549-0.335-0.856-0.317l-1.782-1.781l4.15,1.068c0.117,0.029,0.204,0.122,0.227,0.239l0.429,2.281
		c0.019,0.095-0.013,0.198-0.083,0.267l-1.921,1.92C25.718,19.069,25.641,19.1,25.558,19.1L25.558,19.1z M27.351,21.354
		l-0.938-0.869l2.755-2.756l0.869,0.938L27.351,21.354z M27.351,21.354"/>
	<path fill="#575757" d="M7.001,26.461h31.787c0.824,0,1.491-0.668,1.491-1.491V3.115c0-0.823-0.667-1.49-1.491-1.49H7.001
		c-0.824,0-1.491,0.667-1.491,1.49V24.97C5.51,25.793,6.177,26.461,7.001,26.461L7.001,26.461z M8.491,4.605h28.807V23.48H8.491
		V4.605z M8.491,4.605"/>
	<path fill="#575757" d="M42.945,28.447H2.845c-1.234,0-2.236,1.001-2.236,2.235c0,1.235,1.001,2.235,2.236,2.235h40.101
		c1.233,0,2.234-1,2.234-2.235C45.18,29.448,44.179,28.447,42.945,28.447L42.945,28.447z M42.945,28.447"/>
</g>
</svg>
